# 3ds Max Wavefront OBJ Exporter v0.99 - (c)2007 guruware
# File Created: 14.10.2025 15:34:06

mtllib Vaso.mtl

#
# object Major_low
#

v  -22.5847 0.2363 -0.5906
v  -22.6782 0.4652 -0.5602
v  -22.9358 0.4652 -1.0655
v  -22.8561 0.2363 -1.1234
v  -23.3368 0.4652 -1.4667
v  -23.2789 0.2363 -1.5462
v  -23.8421 0.4652 -1.7241
v  -23.8118 0.2363 -1.8176
v  -24.4023 0.4652 -1.8128
v  -24.4023 0.2363 -1.9112
v  -24.9625 0.4652 -1.7241
v  -24.9930 0.2363 -1.8176
v  -25.4680 0.4652 -1.4667
v  -25.5257 0.2363 -1.5462
v  -25.8690 0.4652 -1.0655
v  -25.9485 0.2363 -1.1234
v  -26.1265 0.4652 -0.5602
v  -26.2201 0.2363 -0.5906
v  -26.2153 0.4652 -0.0000
v  -26.3136 0.2363 -0.0000
v  -26.1265 0.4652 0.5602
v  -26.2201 0.2363 0.5906
v  -25.8690 0.4652 1.0655
v  -25.9485 0.2363 1.1234
v  -25.4680 0.4652 1.4667
v  -25.5257 0.2363 1.5462
v  -24.9625 0.4652 1.7241
v  -24.9930 0.2363 1.8176
v  -24.4023 0.4652 1.8128
v  -24.4023 0.2363 1.9112
v  -23.8421 0.4652 1.7241
v  -23.8118 0.2363 1.8176
v  -23.3368 0.4652 1.4667
v  -23.2789 0.2363 1.5462
v  -22.9358 0.4652 1.0655
v  -22.8561 0.2363 1.1234
v  -22.6782 0.4652 0.5602
v  -22.5847 0.2363 0.5906
v  -22.5895 0.4652 -0.0000
v  -22.4911 0.2363 -0.0000
v  -22.3410 5.2748 -0.0000
v  -22.2591 8.0236 -0.0000
v  -22.3640 8.0236 -0.6623
v  -22.4419 5.2748 -0.6370
v  -22.4419 5.2748 0.6370
v  -22.3640 8.0236 0.6623
v  -22.7347 5.2748 1.2116
v  -22.6684 8.0236 1.2597
v  -23.1907 5.2748 1.6676
v  -23.1426 8.0236 1.7339
v  -23.7654 5.2748 1.9605
v  -23.7401 8.0236 2.0383
v  -24.4023 5.2748 2.0613
v  -24.4023 8.0236 2.1432
v  -25.0393 5.2748 1.9605
v  -25.0647 8.0236 2.0383
v  -25.6139 5.2748 1.6676
v  -25.6620 8.0236 1.7339
v  -26.0700 5.2748 1.2116
v  -26.1362 8.0236 1.2597
v  -26.3628 5.2748 0.6370
v  -26.4406 8.0236 0.6623
v  -26.4637 5.2748 -0.0000
v  -26.5455 8.0236 -0.0000
v  -26.3628 5.2748 -0.6370
v  -26.4406 8.0236 -0.6623
v  -26.0700 5.2748 -1.2116
v  -26.1362 8.0236 -1.2597
v  -25.6139 5.2748 -1.6676
v  -25.6620 8.0236 -1.7339
v  -25.0393 5.2748 -1.9605
v  -25.0647 8.0236 -2.0383
v  -24.4023 5.2748 -2.0613
v  -24.4023 8.0236 -2.1432
v  -23.7654 5.2748 -1.9605
v  -23.7401 8.0236 -2.0383
v  -23.1907 5.2748 -1.6676
v  -23.1426 8.0236 -1.7339
v  -22.7347 5.2748 -1.2116
v  -22.6684 8.0236 -1.2597
v  -22.2848 0.2270 -0.6880
v  -22.6010 0.2270 -1.3087
v  -22.5935 0.5418 -1.3142
v  -22.2759 0.5418 -0.6909
v  -23.0936 0.2270 -1.8013
v  -23.0882 0.5418 -1.8089
v  -23.7143 0.2270 -2.1175
v  -23.7114 0.5418 -2.1264
v  -24.4023 0.2270 -2.2265
v  -24.4023 0.5418 -2.2359
v  -25.0904 0.2270 -2.1175
v  -25.0933 0.5418 -2.1264
v  -25.7110 0.2270 -1.8013
v  -25.7165 0.5418 -1.8089
v  -26.2036 0.2270 -1.3087
v  -26.2112 0.5418 -1.3142
v  -26.5198 0.2270 -0.6880
v  -26.5288 0.5418 -0.6909
v  -26.6288 0.2270 -0.0000
v  -26.6382 0.5418 -0.0000
v  -26.5198 0.2270 0.6880
v  -26.5288 0.5418 0.6909
v  -26.2036 0.2270 1.3087
v  -26.2112 0.5418 1.3142
v  -25.7110 0.2270 1.8013
v  -25.7165 0.5418 1.8089
v  -25.0904 0.2270 2.1175
v  -25.0933 0.5418 2.1264
v  -24.4023 0.2270 2.2265
v  -24.4023 0.5418 2.2359
v  -23.7143 0.2270 2.1175
v  -23.7114 0.5418 2.1264
v  -23.0936 0.2270 1.8013
v  -23.0882 0.5418 1.8089
v  -22.6010 0.2270 1.3087
v  -22.5935 0.5418 1.3142
v  -22.2848 0.2270 0.6880
v  -22.2759 0.5418 0.6909
v  -22.1758 0.2270 -0.0000
v  -22.1665 0.5418 -0.0000
v  -22.0258 5.2654 -0.0000
v  -22.1421 5.2654 -0.7344
v  -22.0642 8.0143 -0.7597
v  -21.9439 8.0143 -0.0000
v  -22.1421 5.2654 0.7344
v  -22.0642 8.0143 0.7597
v  -22.4796 5.2654 1.3969
v  -22.4135 8.0143 1.4450
v  -23.0054 5.2654 1.9227
v  -22.9573 8.0143 1.9890
v  -23.6679 5.2654 2.2603
v  -23.6426 8.0143 2.3381
v  -24.4023 5.2654 2.3765
v  -24.4023 8.0143 2.4584
v  -25.1367 5.2654 2.2603
v  -25.1620 8.0143 2.3381
v  -25.7992 5.2654 1.9227
v  -25.8473 8.0143 1.9890
v  -26.3250 5.2654 1.3969
v  -26.3913 8.0143 1.4450
v  -26.6626 5.2654 0.7344
v  -26.7404 8.0143 0.7597
v  -26.7789 5.2654 -0.0000
v  -26.8608 8.0143 -0.0000
v  -26.6626 5.2654 -0.7344
v  -26.7404 8.0143 -0.7597
v  -26.3250 5.2654 -1.3969
v  -26.3913 8.0143 -1.4450
v  -25.7992 5.2654 -1.9227
v  -25.8473 8.0143 -1.9890
v  -25.1367 5.2654 -2.2603
v  -25.1620 8.0143 -2.3381
v  -24.4023 5.2654 -2.3765
v  -24.4023 8.0143 -2.4584
v  -23.6679 5.2654 -2.2603
v  -23.6426 8.0143 -2.3381
v  -23.0054 5.2654 -1.9227
v  -22.9573 8.0143 -1.9890
v  -22.4796 5.2654 -1.3969
v  -22.4135 8.0143 -1.4450
v  -22.0821 3.3759 -0.0000
v  -22.0602 3.0618 -0.3709
v  -22.1957 3.3759 -0.7170
v  -22.1957 3.3759 0.7170
v  -22.0602 3.0618 0.3709
v  -22.5252 3.3759 1.3638
v  -22.2895 3.0618 1.0766
v  -23.0385 3.3759 1.8772
v  -22.7256 3.0618 1.6767
v  -23.6853 3.3759 2.2067
v  -23.3258 3.0618 2.1129
v  -24.4023 3.3759 2.3203
v  -24.0314 3.0618 2.3421
v  -25.1194 3.3759 2.2067
v  -24.7733 3.0618 2.3421
v  -25.7661 3.3759 1.8772
v  -25.4789 3.0618 2.1129
v  -26.2795 3.3759 1.3638
v  -26.0791 3.0618 1.6767
v  -26.6091 3.3759 0.7170
v  -26.5152 3.0618 1.0766
v  -26.7226 3.3759 -0.0000
v  -26.7444 3.0618 0.3709
v  -26.6091 3.3759 -0.7170
v  -26.7444 3.0618 -0.3709
v  -26.2795 3.3759 -1.3638
v  -26.5152 3.0618 -1.0766
v  -25.7661 3.3759 -1.8772
v  -26.0791 3.0618 -1.6767
v  -25.1194 3.3759 -2.2067
v  -25.4789 3.0618 -2.1129
v  -24.4023 3.3759 -2.3203
v  -24.7733 3.0618 -2.3421
v  -23.6853 3.3759 -2.2067
v  -24.0314 3.0618 -2.3421
v  -23.0385 3.3759 -1.8772
v  -23.3258 3.0618 -2.1129
v  -22.5252 3.3759 -1.3638
v  -22.7256 3.0618 -1.6767
v  -22.2895 3.0618 -1.0766
v  -22.0446 4.6355 -0.0000
v  -22.0222 4.3214 -0.3770
v  -22.1600 4.6355 -0.7286
v  -22.1600 4.6355 0.7286
v  -22.0222 4.3214 0.3770
v  -22.4948 4.6355 1.3858
v  -22.2551 4.3214 1.0940
v  -23.0165 4.6355 1.9075
v  -22.6984 4.3214 1.7041
v  -23.6738 4.6355 2.2424
v  -23.3083 4.3214 2.1472
v  -24.4023 4.6355 2.3577
v  -24.0254 4.3214 2.3801
v  -25.1310 4.6355 2.2424
v  -24.7793 4.3214 2.3801
v  -25.7882 4.6355 1.9075
v  -25.4964 4.3214 2.1472
v  -26.3098 4.6355 1.3858
v  -26.1064 4.3214 1.7041
v  -26.6448 4.6355 0.7286
v  -26.5495 4.3214 1.0940
v  -26.7602 4.6355 -0.0000
v  -26.7824 4.3214 0.3770
v  -26.6448 4.6355 -0.7286
v  -26.7824 4.3214 -0.3770
v  -26.3098 4.6355 -1.3858
v  -26.5495 4.3214 -1.0940
v  -25.7882 4.6355 -1.9075
v  -26.1064 4.3214 -1.7041
v  -25.1310 4.6355 -2.2424
v  -25.4964 4.3214 -2.1472
v  -24.4023 4.6355 -2.3577
v  -24.7793 4.3214 -2.3801
v  -23.6738 4.6355 -2.2424
v  -24.0254 4.3214 -2.3801
v  -23.0165 4.6355 -1.9075
v  -23.3083 4.3214 -2.1472
v  -22.4948 4.6355 -1.3858
v  -22.6984 4.3214 -1.7041
v  -22.2551 4.3214 -1.0940
v  -22.1196 2.1163 -0.0000
v  -22.0982 1.8022 -0.3649
v  -22.2313 2.1163 -0.7054
v  -22.2313 2.1163 0.7054
v  -22.0982 1.8022 0.3649
v  -22.5556 2.1163 1.3418
v  -22.3238 1.8022 1.0590
v  -23.0605 2.1163 1.8468
v  -22.7528 1.8022 1.6496
v  -23.6969 2.1163 2.1710
v  -23.3433 1.8022 2.0786
v  -24.4023 2.1163 2.2828
v  -24.0374 1.8022 2.3041
v  -25.1077 2.1163 2.1710
v  -24.7672 1.8022 2.3041
v  -25.7441 2.1163 1.8468
v  -25.4615 1.8022 2.0786
v  -26.2491 2.1163 1.3418
v  -26.0519 1.8022 1.6496
v  -26.5733 2.1163 0.7054
v  -26.4809 1.8022 1.0590
v  -26.6851 2.1163 -0.0000
v  -26.7064 1.8022 0.3649
v  -26.5733 2.1163 -0.7054
v  -26.7064 1.8022 -0.3649
v  -26.2491 2.1163 -1.3418
v  -26.4809 1.8022 -1.0590
v  -25.7441 2.1163 -1.8468
v  -26.0519 1.8022 -1.6496
v  -25.1077 2.1163 -2.1710
v  -25.4615 1.8022 -2.0786
v  -24.4023 2.1163 -2.2828
v  -24.7672 1.8022 -2.3041
v  -23.6969 2.1163 -2.1710
v  -24.0374 1.8022 -2.3041
v  -23.0605 2.1163 -1.8468
v  -23.3433 1.8022 -2.0786
v  -22.5556 2.1163 -1.3418
v  -22.7528 1.8022 -1.6496
v  -22.3238 1.8022 -1.0590
v  -22.0032 4.9511 -0.3800
v  -22.0032 4.9511 0.3800
v  -22.2380 4.9511 1.1028
v  -22.6848 4.9511 1.7177
v  -23.2996 4.9511 2.1643
v  -24.0224 4.9511 2.3991
v  -24.7823 4.9511 2.3991
v  -25.5051 4.9511 2.1643
v  -26.1200 4.9511 1.7177
v  -26.5667 4.9511 1.1028
v  -26.8016 4.9511 0.3800
v  -26.8016 4.9511 -0.3800
v  -26.5667 4.9511 -1.1028
v  -26.1200 4.9511 -1.7177
v  -25.5051 4.9511 -2.1643
v  -24.7823 4.9511 -2.3991
v  -24.0224 4.9511 -2.3991
v  -23.2996 4.9511 -2.1643
v  -22.6848 4.9511 -1.7177
v  -22.2380 4.9511 -1.1028
v  -22.0633 4.0058 -0.0000
v  -22.0412 3.6915 -0.3739
v  -22.1778 4.0058 -0.7227
v  -22.1778 4.0058 0.7227
v  -22.0412 3.6915 0.3739
v  -22.5101 4.0058 1.3749
v  -22.2723 3.6915 1.0853
v  -23.0274 4.0058 1.8924
v  -22.7120 3.6915 1.6903
v  -23.6796 4.0058 2.2246
v  -23.3170 3.6915 2.1300
v  -24.4023 4.0058 2.3390
v  -24.0284 3.6915 2.3611
v  -25.1252 4.0058 2.2246
v  -24.7763 3.6915 2.3611
v  -25.7772 4.0058 1.8924
v  -25.4876 3.6915 2.1300
v  -26.2947 4.0058 1.3749
v  -26.0928 3.6915 1.6903
v  -26.6269 4.0058 0.7227
v  -26.5323 3.6915 1.0853
v  -26.7414 4.0058 -0.0000
v  -26.7634 3.6915 0.3739
v  -26.6269 4.0058 -0.7227
v  -26.7634 3.6915 -0.3739
v  -26.2947 4.0058 -1.3749
v  -26.5323 3.6915 -1.0853
v  -25.7772 4.0058 -1.8924
v  -26.0928 3.6915 -1.6903
v  -25.1252 4.0058 -2.2246
v  -25.4876 3.6915 -2.1300
v  -24.4023 4.0058 -2.3390
v  -24.7763 3.6915 -2.3611
v  -23.6796 4.0058 -2.2246
v  -24.0284 3.6915 -2.3611
v  -23.0274 4.0058 -1.8924
v  -23.3170 3.6915 -2.1300
v  -22.5101 4.0058 -1.3749
v  -22.7120 3.6915 -1.6903
v  -22.2723 3.6915 -1.0853
v  -22.1009 2.7462 -0.0000
v  -22.0792 2.4319 -0.3679
v  -22.2135 2.7462 -0.7112
v  -22.2135 2.7462 0.7112
v  -22.0792 2.4319 0.3679
v  -22.5404 2.7462 1.3528
v  -22.3066 2.4319 1.0678
v  -23.0496 2.7462 1.8619
v  -22.7392 2.4319 1.6631
v  -23.6911 2.7462 2.1888
v  -23.3345 2.4319 2.0957
v  -24.4023 2.7462 2.3016
v  -24.0344 2.4319 2.3231
v  -25.1135 2.7462 2.1888
v  -24.7702 2.4319 2.3231
v  -25.7552 2.7462 1.8619
v  -25.4701 2.4319 2.0957
v  -26.2643 2.7462 1.3528
v  -26.0655 2.4319 1.6631
v  -26.5912 2.7462 0.7112
v  -26.4980 2.4319 1.0678
v  -26.7039 2.7462 -0.0000
v  -26.7254 2.4319 0.3679
v  -26.5912 2.7462 -0.7112
v  -26.7254 2.4319 -0.3679
v  -26.2643 2.7462 -1.3528
v  -26.4980 2.4319 -1.0678
v  -25.7552 2.7462 -1.8619
v  -26.0655 2.4319 -1.6631
v  -25.1135 2.7462 -2.1888
v  -25.4701 2.4319 -2.0957
v  -24.4023 2.7462 -2.3016
v  -24.7702 2.4319 -2.3231
v  -23.6911 2.7462 -2.1888
v  -24.0344 2.4319 -2.3231
v  -23.0496 2.7462 -1.8619
v  -23.3345 2.4319 -2.0957
v  -22.5404 2.7462 -1.3528
v  -22.7392 2.4319 -1.6631
v  -22.3066 2.4319 -1.0678
v  -22.1383 1.4866 -0.0000
v  -22.1172 1.1724 -0.3619
v  -22.2491 1.4866 -0.6996
v  -22.2491 1.4866 0.6996
v  -22.1172 1.1724 0.3619
v  -22.5707 1.4866 1.3307
v  -22.3409 1.1724 1.0504
v  -23.0716 1.4866 1.8316
v  -22.7664 1.1724 1.6360
v  -23.7028 1.4866 2.1532
v  -23.3521 1.1724 2.0614
v  -24.4023 1.4866 2.2640
v  -24.0404 1.1724 2.2851
v  -25.1020 1.4866 2.1532
v  -24.7642 1.1724 2.2851
v  -25.7330 1.4866 1.8316
v  -25.4527 1.1724 2.0614
v  -26.2339 1.4866 1.3307
v  -26.0383 1.1724 1.6360
v  -26.5555 1.4866 0.6996
v  -26.4637 1.1724 1.0504
v  -26.6663 1.4866 -0.0000
v  -26.6874 1.1724 0.3619
v  -26.5555 1.4866 -0.6996
v  -26.6874 1.1724 -0.3619
v  -26.2339 1.4866 -1.3307
v  -26.4637 1.1724 -1.0504
v  -25.7330 1.4866 -1.8316
v  -26.0383 1.1724 -1.6360
v  -25.1020 1.4866 -2.1532
v  -25.4527 1.1724 -2.0614
v  -24.4023 1.4866 -2.2640
v  -24.7642 1.1724 -2.2851
v  -23.7028 1.4866 -2.1532
v  -24.0404 1.1724 -2.2851
v  -23.0716 1.4866 -1.8316
v  -23.3521 1.1724 -2.0614
v  -22.5707 1.4866 -1.3307
v  -22.7664 1.1724 -1.6360
v  -22.3409 1.1724 -1.0504
v  -22.2670 0.8568 -0.6939
v  -22.1571 0.8568 -0.0000
v  -22.2670 0.8568 0.6939
v  -22.5859 0.8568 1.3198
v  -23.0827 0.8568 1.8164
v  -23.7086 0.8568 2.1353
v  -24.4023 0.8568 2.2452
v  -25.0962 0.8568 2.1353
v  -25.7221 0.8568 1.8164
v  -26.2187 0.8568 1.3198
v  -26.5377 0.8568 0.6939
v  -26.6476 0.8568 -0.0000
v  -26.5377 0.8568 -0.6939
v  -26.2187 0.8568 -1.3198
v  -25.7221 0.8568 -1.8164
v  -25.0962 0.8568 -2.1353
v  -24.4023 0.8568 -2.2452
v  -23.7086 0.8568 -2.1353
v  -23.0827 0.8568 -1.8164
v  -22.5859 0.8568 -1.3198
v  -23.2706 0.7138 -1.5578
v  -22.8446 0.7138 -1.1317
v  -23.8073 0.7138 -1.8312
v  -24.4023 0.7138 -1.9254
v  -24.9973 0.7138 -1.8312
v  -25.5341 0.7138 -1.5578
v  -25.9601 0.7138 -1.1317
v  -26.2335 0.7138 -0.5950
v  -26.3278 0.7138 -0.0000
v  -26.2335 0.7138 0.5950
v  -25.9601 0.7138 1.1317
v  -25.5341 0.7138 1.5578
v  -24.9973 0.7138 1.8312
v  -24.4023 0.7138 1.9254
v  -23.8073 0.7138 1.8312
v  -23.2706 0.7138 1.5578
v  -22.8446 0.7138 1.1317
v  -22.5711 0.7138 0.5950
v  -22.4769 0.7138 -0.0000
v  -22.5711 0.7138 -0.5950
v  -24.4023 0.7138 -0.0000
v  -24.4023 0.4652 -0.0000
# 462 vertices

vn -0.4130 -0.9008 0.1342
vn -0.2439 -0.9666 0.0792
vn -0.2074 -0.9666 0.1507
vn -0.3513 -0.9008 0.2552
vn -0.1507 -0.9666 0.2074
vn -0.2552 -0.9008 0.3513
vn -0.0792 -0.9666 0.2439
vn -0.1342 -0.9008 0.4130
vn 0.0000 -0.9666 0.2564
vn 0.0000 -0.9008 0.4342
vn 0.0792 -0.9666 0.2439
vn 0.1342 -0.9008 0.4130
vn 0.1507 -0.9666 0.2074
vn 0.2552 -0.9008 0.3513
vn 0.2074 -0.9666 0.1507
vn 0.3513 -0.9008 0.2552
vn 0.2439 -0.9666 0.0792
vn 0.4130 -0.9008 0.1342
vn 0.2564 -0.9666 -0.0000
vn 0.4342 -0.9008 -0.0000
vn 0.2439 -0.9666 -0.0792
vn 0.4130 -0.9008 -0.1342
vn 0.2074 -0.9666 -0.1507
vn 0.3513 -0.9008 -0.2552
vn 0.1507 -0.9666 -0.2074
vn 0.2552 -0.9008 -0.3513
vn 0.0792 -0.9666 -0.2439
vn 0.1342 -0.9008 -0.4130
vn 0.0000 -0.9666 -0.2564
vn 0.0000 -0.9008 -0.4342
vn -0.0792 -0.9666 -0.2439
vn -0.1342 -0.9008 -0.4130
vn -0.1507 -0.9666 -0.2074
vn -0.2552 -0.9008 -0.3513
vn -0.2074 -0.9666 -0.1507
vn -0.3513 -0.9008 -0.2552
vn -0.2439 -0.9666 -0.0792
vn -0.4130 -0.9008 -0.1342
vn -0.2564 -0.9666 -0.0000
vn -0.4342 -0.9008 -0.0000
vn -0.9996 0.0298 -0.0000
vn -0.9506 0.0298 0.3089
vn -0.9506 0.0298 -0.3089
vn -0.8087 0.0298 -0.5875
vn -0.5875 0.0298 -0.8087
vn -0.3089 0.0298 -0.9506
vn 0.0000 0.0298 -0.9996
vn 0.3089 0.0298 -0.9506
vn 0.5875 0.0298 -0.8087
vn 0.8087 0.0298 -0.5875
vn 0.9506 0.0298 -0.3089
vn 0.9996 0.0298 -0.0000
vn 0.9506 0.0298 0.3089
vn 0.8087 0.0298 0.5875
vn 0.5875 0.0298 0.8087
vn 0.3089 0.0298 0.9506
vn 0.0000 0.0298 0.9996
vn -0.3089 0.0298 0.9506
vn -0.5875 0.0298 0.8087
vn -0.8087 0.0298 0.5875
vn 0.7123 -0.6626 -0.2314
vn 0.6059 -0.6626 -0.4402
vn 0.8087 -0.0298 -0.5875
vn 0.9506 -0.0298 -0.3089
vn 0.4402 -0.6626 -0.6059
vn 0.5875 -0.0298 -0.8087
vn 0.2314 -0.6626 -0.7123
vn 0.3089 -0.0298 -0.9506
vn 0.0000 -0.6626 -0.7490
vn 0.0000 -0.0298 -0.9996
vn -0.2314 -0.6626 -0.7123
vn -0.3089 -0.0298 -0.9506
vn -0.4402 -0.6626 -0.6059
vn -0.5875 -0.0298 -0.8087
vn -0.6059 -0.6626 -0.4402
vn -0.8087 -0.0298 -0.5875
vn -0.7123 -0.6626 -0.2314
vn -0.9506 -0.0298 -0.3089
vn -0.7490 -0.6626 -0.0000
vn -0.9996 -0.0298 -0.0000
vn -0.7123 -0.6626 0.2314
vn -0.9506 -0.0298 0.3089
vn -0.6059 -0.6626 0.4402
vn -0.8087 -0.0298 0.5875
vn -0.4402 -0.6626 0.6059
vn -0.5875 -0.0298 0.8087
vn -0.2314 -0.6626 0.7123
vn -0.3089 -0.0298 0.9506
vn 0.0000 -0.6626 0.7490
vn 0.0000 -0.0298 0.9996
vn 0.2314 -0.6626 0.7123
vn 0.3089 -0.0298 0.9506
vn 0.4402 -0.6626 0.6059
vn 0.5875 -0.0298 0.8087
vn 0.6059 -0.6626 0.4402
vn 0.8087 -0.0298 0.5875
vn 0.7123 -0.6626 0.2314
vn 0.9506 -0.0298 0.3089
vn 0.7490 -0.6626 -0.0000
vn 0.9996 -0.0298 -0.0000
vn 0.9997 -0.0227 -0.0000
vn 0.9508 -0.0227 -0.3089
vn 0.9488 0.0684 -0.3083
vn 0.9977 0.0684 -0.0000
vn 0.9508 -0.0227 0.3089
vn 0.9488 0.0684 0.3083
vn 0.8088 -0.0227 0.5876
vn 0.8071 0.0684 0.5864
vn 0.5876 -0.0227 0.8088
vn 0.5864 0.0684 0.8071
vn 0.3089 -0.0227 0.9508
vn 0.3083 0.0684 0.9488
vn 0.0000 -0.0227 0.9997
vn 0.0000 0.0684 0.9977
vn -0.3089 -0.0227 0.9508
vn -0.3083 0.0684 0.9488
vn -0.5876 -0.0227 0.8088
vn -0.5864 0.0684 0.8071
vn -0.8088 -0.0227 0.5876
vn -0.8071 0.0684 0.5864
vn -0.9508 -0.0227 0.3089
vn -0.9488 0.0684 0.3083
vn -0.9997 -0.0227 -0.0000
vn -0.9977 0.0684 -0.0000
vn -0.9508 -0.0227 -0.3089
vn -0.9488 0.0684 -0.3083
vn -0.8088 -0.0227 -0.5876
vn -0.8071 0.0684 -0.5864
vn -0.5876 -0.0227 -0.8088
vn -0.5864 0.0684 -0.8071
vn -0.3089 -0.0227 -0.9508
vn -0.3083 0.0684 -0.9488
vn 0.0000 -0.0227 -0.9997
vn 0.0000 0.0684 -0.9977
vn 0.3089 -0.0227 -0.9508
vn 0.3083 0.0684 -0.9488
vn 0.5876 -0.0227 -0.8088
vn 0.5864 0.0684 -0.8071
vn 0.8088 -0.0227 -0.5876
vn 0.8071 0.0684 -0.5864
vn 0.0283 0.9996 -0.0092
vn 0.0298 0.9996 -0.0000
vn 0.0283 0.9996 0.0092
vn 0.0241 0.9996 0.0175
vn 0.0175 0.9996 0.0241
vn 0.0092 0.9996 0.0283
vn 0.0000 0.9996 0.0298
vn -0.0092 0.9996 0.0283
vn -0.0175 0.9996 0.0241
vn -0.0241 0.9996 0.0175
vn -0.0283 0.9996 0.0092
vn -0.0298 0.9996 -0.0000
vn -0.0283 0.9996 -0.0092
vn -0.0241 0.9996 -0.0175
vn -0.0175 0.9996 -0.0241
vn -0.0092 0.9996 -0.0283
vn 0.0000 0.9996 -0.0298
vn 0.0092 0.9996 -0.0283
vn 0.0175 0.9996 -0.0241
vn 0.0241 0.9996 -0.0175
vn 0.9995 -0.0312 -0.0000
vn 0.9873 -0.0281 -0.1564
vn 0.9506 -0.0312 -0.3089
vn 0.9506 -0.0312 0.3089
vn 0.9873 -0.0281 0.1564
vn 0.8086 -0.0312 0.5875
vn 0.8907 -0.0281 0.4538
vn 0.5875 -0.0312 0.8086
vn 0.7068 -0.0281 0.7068
vn 0.3089 -0.0312 0.9506
vn 0.4538 -0.0281 0.8907
vn 0.0000 -0.0312 0.9995
vn 0.1564 -0.0281 0.9873
vn -0.3089 -0.0312 0.9506
vn -0.1564 -0.0281 0.9873
vn -0.5875 -0.0312 0.8086
vn -0.4538 -0.0281 0.8907
vn -0.8086 -0.0312 0.5875
vn -0.7068 -0.0281 0.7068
vn -0.9506 -0.0312 0.3089
vn -0.8907 -0.0281 0.4538
vn -0.9995 -0.0312 -0.0000
vn -0.9873 -0.0281 0.1564
vn -0.9506 -0.0312 -0.3089
vn -0.9873 -0.0281 -0.1564
vn -0.8086 -0.0312 -0.5875
vn -0.8907 -0.0281 -0.4538
vn -0.5875 -0.0312 -0.8086
vn -0.7068 -0.0281 -0.7068
vn -0.3089 -0.0312 -0.9506
vn -0.4538 -0.0281 -0.8907
vn 0.0000 -0.0312 -0.9995
vn -0.1564 -0.0281 -0.9873
vn 0.3089 -0.0312 -0.9506
vn 0.1564 -0.0281 -0.9873
vn 0.5875 -0.0312 -0.8086
vn 0.4538 -0.0281 -0.8907
vn 0.8086 -0.0312 -0.5875
vn 0.7068 -0.0281 -0.7068
vn 0.8907 -0.0281 -0.4538
vn 0.9873 -0.0280 -0.1564
vn 0.9873 -0.0280 0.1564
vn 0.8907 -0.0280 0.4538
vn 0.7068 -0.0280 0.7068
vn 0.4538 -0.0280 0.8907
vn 0.1564 -0.0280 0.9873
vn -0.1564 -0.0280 0.9873
vn -0.4538 -0.0280 0.8907
vn -0.7068 -0.0280 0.7068
vn -0.8907 -0.0280 0.4538
vn -0.9873 -0.0280 0.1564
vn -0.9873 -0.0280 -0.1564
vn -0.8907 -0.0280 -0.4538
vn -0.7068 -0.0280 -0.7068
vn -0.4538 -0.0280 -0.8907
vn -0.1564 -0.0280 -0.9873
vn 0.1564 -0.0280 -0.9873
vn 0.4538 -0.0280 -0.8907
vn 0.7068 -0.0280 -0.7068
vn 0.8907 -0.0280 -0.4538
vn 0.9995 -0.0311 -0.0000
vn 0.9506 -0.0311 -0.3089
vn 0.9506 -0.0311 0.3089
vn 0.8086 -0.0311 0.5875
vn 0.5875 -0.0311 0.8086
vn 0.3089 -0.0311 0.9506
vn 0.0000 -0.0311 0.9995
vn -0.3089 -0.0311 0.9506
vn -0.5875 -0.0311 0.8086
vn -0.8086 -0.0311 0.5875
vn -0.9506 -0.0311 0.3089
vn -0.9995 -0.0311 -0.0000
vn -0.9506 -0.0311 -0.3089
vn -0.8086 -0.0311 -0.5875
vn -0.5875 -0.0311 -0.8086
vn -0.3089 -0.0311 -0.9506
vn 0.0000 -0.0311 -0.9995
vn 0.3089 -0.0311 -0.9506
vn 0.5875 -0.0311 -0.8086
vn 0.8086 -0.0311 -0.5875
vn 0.9485 -0.0736 -0.3082
vn 0.9973 -0.0736 -0.0000
vn 0.9485 -0.0736 0.3082
vn 0.8068 -0.0736 0.5862
vn 0.5862 -0.0736 0.8068
vn 0.3082 -0.0736 0.9485
vn 0.0000 -0.0736 0.9973
vn -0.3082 -0.0736 0.9485
vn -0.5862 -0.0736 0.8068
vn -0.8068 -0.0736 0.5862
vn -0.9485 -0.0736 0.3082
vn -0.9973 -0.0736 -0.0000
vn -0.9485 -0.0736 -0.3082
vn -0.8068 -0.0736 -0.5862
vn -0.5862 -0.0736 -0.8068
vn -0.3082 -0.0736 -0.9485
vn 0.0000 -0.0736 -0.9973
vn 0.3082 -0.0736 -0.9485
vn 0.5862 -0.0736 -0.8068
vn 0.8068 -0.0736 -0.5862
vn 0.0000 1.0000 -0.0000
vn 0.0000 -1.0000 -0.0000
# 262 vertex normals

vt 0.8101 0.7527 0.0000
vt 0.8163 0.7647 0.0000
vt 0.7915 0.7829 0.0000
vt 0.7820 0.7733 0.0000
vt 0.7736 0.8078 0.0000
vt 0.7616 0.8017 0.0000
vt 0.7643 0.8371 0.0000
vt 0.7509 0.8350 0.0000
vt 0.7645 0.8678 0.0000
vt 0.7511 0.8700 0.0000
vt 0.7741 0.8970 0.0000
vt 0.7621 0.9031 0.0000
vt 0.7923 0.9217 0.0000
vt 0.7828 0.9313 0.0000
vt 0.8172 0.9397 0.0000
vt 0.8111 0.9517 0.0000
vt 0.8465 0.9490 0.0000
vt 0.8444 0.9624 0.0000
vt 0.8772 0.9488 0.0000
vt 0.8793 0.9622 0.0000
vt 0.9064 0.9392 0.0000
vt 0.9125 0.9512 0.0000
vt 0.9311 0.9210 0.0000
vt 0.9407 0.9305 0.0000
vt 0.9491 0.8960 0.0000
vt 0.9611 0.9022 0.0000
vt 0.9584 0.8668 0.0000
vt 0.9717 0.8689 0.0000
vt 0.9582 0.8361 0.0000
vt 0.9716 0.8339 0.0000
vt 0.9486 0.8069 0.0000
vt 0.9606 0.8008 0.0000
vt 0.9304 0.7821 0.0000
vt 0.9399 0.7726 0.0000
vt 0.9054 0.7642 0.0000
vt 0.9115 0.7522 0.0000
vt 0.8762 0.7549 0.0000
vt 0.8783 0.7415 0.0000
vt 0.8454 0.7550 0.0000
vt 0.8433 0.7417 0.0000
vt 0.0606 0.7621 0.0000
vt 0.0484 0.9070 0.0000
vt 0.0131 0.9038 0.0000
vt 0.0266 0.7591 0.0000
vt 0.0946 0.7648 0.0000
vt 0.0838 0.9098 0.0000
vt 0.1286 0.7672 0.0000
vt 0.1191 0.9123 0.0000
vt 0.1626 0.7692 0.0000
vt 0.1545 0.9144 0.0000
vt 0.1967 0.7710 0.0000
vt 0.1899 0.9162 0.0000
vt 0.2307 0.7724 0.0000
vt 0.2253 0.9177 0.0000
vt 0.2648 0.7735 0.0000
vt 0.2608 0.9189 0.0000
vt 0.2989 0.7743 0.0000
vt 0.2962 0.9197 0.0000
vt 0.3330 0.7748 0.0000
vt 0.3316 0.9202 0.0000
vt 0.3671 0.7750 0.0000
vt 0.3671 0.9203 0.0000
vt 0.4012 0.7748 0.0000
vt 0.4025 0.9202 0.0000
vt 0.4353 0.7743 0.0000
vt 0.4380 0.9197 0.0000
vt 0.4694 0.7735 0.0000
vt 0.4734 0.9188 0.0000
vt 0.5034 0.7724 0.0000
vt 0.5089 0.9177 0.0000
vt 0.5375 0.7710 0.0000
vt 0.5443 0.9162 0.0000
vt 0.5715 0.7692 0.0000
vt 0.5797 0.9144 0.0000
vt 0.6056 0.7672 0.0000
vt 0.6151 0.9122 0.0000
vt 0.6396 0.7648 0.0000
vt 0.6504 0.9098 0.0000
vt 0.6736 0.7621 0.0000
vt 0.6858 0.9070 0.0000
vt 0.7075 0.7591 0.0000
vt 0.7211 0.9038 0.0000
vt 0.0635 0.0078 0.0000
vt 0.1004 0.0109 0.0000
vt 0.0991 0.0275 0.0000
vt 0.0620 0.0244 0.0000
vt 0.1375 0.0136 0.0000
vt 0.1363 0.0303 0.0000
vt 0.1746 0.0161 0.0000
vt 0.1736 0.0327 0.0000
vt 0.2118 0.0182 0.0000
vt 0.2109 0.0349 0.0000
vt 0.2490 0.0200 0.0000
vt 0.2483 0.0367 0.0000
vt 0.2863 0.0215 0.0000
vt 0.2857 0.0382 0.0000
vt 0.3235 0.0227 0.0000
vt 0.3230 0.0393 0.0000
vt 0.3607 0.0235 0.0000
vt 0.3604 0.0401 0.0000
vt 0.3979 0.0240 0.0000
vt 0.3978 0.0406 0.0000
vt 0.4352 0.0241 0.0000
vt 0.4352 0.0408 0.0000
vt 0.4724 0.0240 0.0000
vt 0.4726 0.0406 0.0000
vt 0.5096 0.0235 0.0000
vt 0.5099 0.0401 0.0000
vt 0.5469 0.0226 0.0000
vt 0.5473 0.0393 0.0000
vt 0.5841 0.0215 0.0000
vt 0.5847 0.0381 0.0000
vt 0.6213 0.0200 0.0000
vt 0.6220 0.0366 0.0000
vt 0.6585 0.0182 0.0000
vt 0.6594 0.0348 0.0000
vt 0.6957 0.0160 0.0000
vt 0.6967 0.0327 0.0000
vt 0.7328 0.0136 0.0000
vt 0.7340 0.0302 0.0000
vt 0.7699 0.0108 0.0000
vt 0.7712 0.0274 0.0000
vt 0.8068 0.0077 0.0000
vt 0.8083 0.0243 0.0000
vt 0.7912 0.2808 0.0000
vt 0.8306 0.2775 0.0000
vt 0.8431 0.4223 0.0000
vt 0.8025 0.4258 0.0000
vt 0.7518 0.2838 0.0000
vt 0.7619 0.4289 0.0000
vt 0.7123 0.2865 0.0000
vt 0.7212 0.4316 0.0000
vt 0.6728 0.2887 0.0000
vt 0.6804 0.4340 0.0000
vt 0.6332 0.2907 0.0000
vt 0.6396 0.4360 0.0000
vt 0.5936 0.2923 0.0000
vt 0.5987 0.4376 0.0000
vt 0.5540 0.2935 0.0000
vt 0.5579 0.4389 0.0000
vt 0.5144 0.2944 0.0000
vt 0.5170 0.4398 0.0000
vt 0.4748 0.2949 0.0000
vt 0.4761 0.4403 0.0000
vt 0.4352 0.2951 0.0000
vt 0.4352 0.4405 0.0000
vt 0.3956 0.2949 0.0000
vt 0.3943 0.4403 0.0000
vt 0.3560 0.2944 0.0000
vt 0.3534 0.4398 0.0000
vt 0.3164 0.2935 0.0000
vt 0.3126 0.4389 0.0000
vt 0.2768 0.2923 0.0000
vt 0.2717 0.4376 0.0000
vt 0.2372 0.2907 0.0000
vt 0.2309 0.4360 0.0000
vt 0.1977 0.2888 0.0000
vt 0.1900 0.4340 0.0000
vt 0.1582 0.2865 0.0000
vt 0.1493 0.4316 0.0000
vt 0.1187 0.2839 0.0000
vt 0.1086 0.4289 0.0000
vt 0.0792 0.2809 0.0000
vt 0.0679 0.4258 0.0000
vt 0.0399 0.2776 0.0000
vt 0.0274 0.4224 0.0000
vt 0.8022 0.7373 0.0000
vt 0.7697 0.7612 0.0000
vt 0.7461 0.7940 0.0000
vt 0.7339 0.8324 0.0000
vt 0.7341 0.8728 0.0000
vt 0.7468 0.9110 0.0000
vt 0.7706 0.9435 0.0000
vt 0.8033 0.9671 0.0000
vt 0.8418 0.9794 0.0000
vt 0.8821 0.9792 0.0000
vt 0.9205 0.9666 0.0000
vt 0.9530 0.9427 0.0000
vt 0.9766 0.9099 0.0000
vt 0.9888 0.8715 0.0000
vt 0.9886 0.8312 0.0000
vt 0.9760 0.7928 0.0000
vt 0.9521 0.7603 0.0000
vt 0.9193 0.7368 0.0000
vt 0.8809 0.7245 0.0000
vt 0.8405 0.7247 0.0000
vt 0.8717 0.6904 0.0000
vt 0.8691 0.6739 0.0000
vt 0.9028 0.6629 0.0000
vt 0.9104 0.6777 0.0000
vt 0.9315 0.6420 0.0000
vt 0.9433 0.6538 0.0000
vt 0.9523 0.6133 0.0000
vt 0.9671 0.6209 0.0000
vt 0.9632 0.5796 0.0000
vt 0.9796 0.5822 0.0000
vt 0.9631 0.5441 0.0000
vt 0.9796 0.5415 0.0000
vt 0.9521 0.5104 0.0000
vt 0.9670 0.5028 0.0000
vt 0.9313 0.4818 0.0000
vt 0.9431 0.4700 0.0000
vt 0.9026 0.4609 0.0000
vt 0.9102 0.4461 0.0000
vt 0.8689 0.4500 0.0000
vt 0.8715 0.4335 0.0000
vt 0.8334 0.4500 0.0000
vt 0.8308 0.4336 0.0000
vt 0.7997 0.4610 0.0000
vt 0.7921 0.4461 0.0000
vt 0.7710 0.4818 0.0000
vt 0.7593 0.4700 0.0000
vt 0.7502 0.5105 0.0000
vt 0.7354 0.5029 0.0000
vt 0.7392 0.5442 0.0000
vt 0.7228 0.5416 0.0000
vt 0.7392 0.5797 0.0000
vt 0.7228 0.5823 0.0000
vt 0.7502 0.6134 0.0000
vt 0.7353 0.6209 0.0000
vt 0.7710 0.6421 0.0000
vt 0.7592 0.6538 0.0000
vt 0.7996 0.6629 0.0000
vt 0.7921 0.6778 0.0000
vt 0.8333 0.6739 0.0000
vt 0.8307 0.6904 0.0000
vt 0.8688 0.6739 0.0000
vt 0.8714 0.6904 0.0000
vt 0.7835 0.1793 0.0000
vt 0.8015 0.1609 0.0000
vt 0.8223 0.1760 0.0000
vt 0.7448 0.1822 0.0000
vt 0.7629 0.1640 0.0000
vt 0.7061 0.1848 0.0000
vt 0.7244 0.1667 0.0000
vt 0.6674 0.1870 0.0000
vt 0.6858 0.1691 0.0000
vt 0.6287 0.1889 0.0000
vt 0.6473 0.1712 0.0000
vt 0.5900 0.1904 0.0000
vt 0.6087 0.1729 0.0000
vt 0.5513 0.1916 0.0000
vt 0.5702 0.1742 0.0000
vt 0.5126 0.1925 0.0000
vt 0.5316 0.1753 0.0000
vt 0.4739 0.1930 0.0000
vt 0.4931 0.1760 0.0000
vt 0.4352 0.1932 0.0000
vt 0.4545 0.1763 0.0000
vt 0.3965 0.1930 0.0000
vt 0.4159 0.1763 0.0000
vt 0.3578 0.1925 0.0000
vt 0.3773 0.1760 0.0000
vt 0.3191 0.1917 0.0000
vt 0.3388 0.1753 0.0000
vt 0.2803 0.1905 0.0000
vt 0.3002 0.1743 0.0000
vt 0.2417 0.1889 0.0000
vt 0.2617 0.1729 0.0000
vt 0.2030 0.1870 0.0000
vt 0.2231 0.1712 0.0000
vt 0.1643 0.1848 0.0000
vt 0.1846 0.1691 0.0000
vt 0.1256 0.1822 0.0000
vt 0.1460 0.1668 0.0000
vt 0.0869 0.1793 0.0000
vt 0.1075 0.1640 0.0000
vt 0.0481 0.1761 0.0000
vt 0.0689 0.1610 0.0000
vt 0.7887 0.2470 0.0000
vt 0.8070 0.2285 0.0000
vt 0.8280 0.2436 0.0000
vt 0.7495 0.2499 0.0000
vt 0.7679 0.2317 0.0000
vt 0.7102 0.2525 0.0000
vt 0.7288 0.2345 0.0000
vt 0.6710 0.2548 0.0000
vt 0.6897 0.2369 0.0000
vt 0.6317 0.2567 0.0000
vt 0.6505 0.2390 0.0000
vt 0.5924 0.2583 0.0000
vt 0.6114 0.2407 0.0000
vt 0.5531 0.2595 0.0000
vt 0.5723 0.2421 0.0000
vt 0.5138 0.2604 0.0000
vt 0.5331 0.2432 0.0000
vt 0.4745 0.2609 0.0000
vt 0.4940 0.2439 0.0000
vt 0.4352 0.2611 0.0000
vt 0.4548 0.2442 0.0000
vt 0.3959 0.2609 0.0000
vt 0.4156 0.2442 0.0000
vt 0.3566 0.2604 0.0000
vt 0.3765 0.2439 0.0000
vt 0.3173 0.2596 0.0000
vt 0.3373 0.2432 0.0000
vt 0.2780 0.2583 0.0000
vt 0.2981 0.2421 0.0000
vt 0.2387 0.2568 0.0000
vt 0.2590 0.2408 0.0000
vt 0.1994 0.2549 0.0000
vt 0.2199 0.2390 0.0000
vt 0.1602 0.2526 0.0000
vt 0.1808 0.2369 0.0000
vt 0.1210 0.2500 0.0000
vt 0.1417 0.2345 0.0000
vt 0.0817 0.2470 0.0000
vt 0.1025 0.2318 0.0000
vt 0.0424 0.2437 0.0000
vt 0.0634 0.2286 0.0000
vt 0.7781 0.1116 0.0000
vt 0.7958 0.0933 0.0000
vt 0.8163 0.1084 0.0000
vt 0.7400 0.1145 0.0000
vt 0.7578 0.0963 0.0000
vt 0.7020 0.1170 0.0000
vt 0.7199 0.0990 0.0000
vt 0.6639 0.1192 0.0000
vt 0.6819 0.1013 0.0000
vt 0.6258 0.1211 0.0000
vt 0.6440 0.1034 0.0000
vt 0.5877 0.1226 0.0000
vt 0.6060 0.1050 0.0000
vt 0.5495 0.1238 0.0000
vt 0.5681 0.1064 0.0000
vt 0.5114 0.1246 0.0000
vt 0.5301 0.1074 0.0000
vt 0.4733 0.1251 0.0000
vt 0.4921 0.1081 0.0000
vt 0.4352 0.1253 0.0000
vt 0.4542 0.1084 0.0000
vt 0.3971 0.1251 0.0000
vt 0.4162 0.1084 0.0000
vt 0.3589 0.1246 0.0000
vt 0.3782 0.1081 0.0000
vt 0.3208 0.1238 0.0000
vt 0.3402 0.1074 0.0000
vt 0.2827 0.1226 0.0000
vt 0.3023 0.1064 0.0000
vt 0.2446 0.1211 0.0000
vt 0.2643 0.1051 0.0000
vt 0.2065 0.1192 0.0000
vt 0.2264 0.1034 0.0000
vt 0.1684 0.1171 0.0000
vt 0.1884 0.1014 0.0000
vt 0.1303 0.1145 0.0000
vt 0.1505 0.0990 0.0000
vt 0.0922 0.1117 0.0000
vt 0.1125 0.0964 0.0000
vt 0.0541 0.1085 0.0000
vt 0.0746 0.0934 0.0000
vt 0.8096 0.2624 0.0000
vt 0.7703 0.2655 0.0000
vt 0.7309 0.2684 0.0000
vt 0.6916 0.2708 0.0000
vt 0.6522 0.2729 0.0000
vt 0.6127 0.2747 0.0000
vt 0.5733 0.2761 0.0000
vt 0.5339 0.2771 0.0000
vt 0.4944 0.2778 0.0000
vt 0.4549 0.2782 0.0000
vt 0.4155 0.2782 0.0000
vt 0.3760 0.2778 0.0000
vt 0.3366 0.2771 0.0000
vt 0.2971 0.2761 0.0000
vt 0.2577 0.2747 0.0000
vt 0.2183 0.2730 0.0000
vt 0.1789 0.2709 0.0000
vt 0.1395 0.2684 0.0000
vt 0.1001 0.2656 0.0000
vt 0.0608 0.2625 0.0000
vt 0.7861 0.2131 0.0000
vt 0.8043 0.1947 0.0000
vt 0.8252 0.2098 0.0000
vt 0.7471 0.2160 0.0000
vt 0.7654 0.1978 0.0000
vt 0.7082 0.2186 0.0000
vt 0.7266 0.2006 0.0000
vt 0.6692 0.2209 0.0000
vt 0.6877 0.2030 0.0000
vt 0.6302 0.2228 0.0000
vt 0.6489 0.2051 0.0000
vt 0.5912 0.2244 0.0000
vt 0.6101 0.2068 0.0000
vt 0.5522 0.2256 0.0000
vt 0.5712 0.2082 0.0000
vt 0.5132 0.2265 0.0000
vt 0.5324 0.2092 0.0000
vt 0.4742 0.2270 0.0000
vt 0.4935 0.2099 0.0000
vt 0.4352 0.2271 0.0000
vt 0.4546 0.2103 0.0000
vt 0.3962 0.2270 0.0000
vt 0.4158 0.2103 0.0000
vt 0.3572 0.2265 0.0000
vt 0.3769 0.2099 0.0000
vt 0.3182 0.2256 0.0000
vt 0.3380 0.2092 0.0000
vt 0.2792 0.2244 0.0000
vt 0.2992 0.2082 0.0000
vt 0.2402 0.2228 0.0000
vt 0.2603 0.2068 0.0000
vt 0.2012 0.2209 0.0000
vt 0.2215 0.2051 0.0000
vt 0.1622 0.2187 0.0000
vt 0.1827 0.2030 0.0000
vt 0.1233 0.2161 0.0000
vt 0.1438 0.2006 0.0000
vt 0.0843 0.2132 0.0000
vt 0.1050 0.1979 0.0000
vt 0.0452 0.2099 0.0000
vt 0.0661 0.1948 0.0000
vt 0.7809 0.1454 0.0000
vt 0.7987 0.1271 0.0000
vt 0.8193 0.1422 0.0000
vt 0.7424 0.1483 0.0000
vt 0.7604 0.1301 0.0000
vt 0.7040 0.1509 0.0000
vt 0.7221 0.1328 0.0000
vt 0.6656 0.1531 0.0000
vt 0.6839 0.1352 0.0000
vt 0.6273 0.1550 0.0000
vt 0.6456 0.1372 0.0000
vt 0.5889 0.1565 0.0000
vt 0.6074 0.1389 0.0000
vt 0.5504 0.1577 0.0000
vt 0.5691 0.1403 0.0000
vt 0.5120 0.1586 0.0000
vt 0.5309 0.1413 0.0000
vt 0.4736 0.1591 0.0000
vt 0.4926 0.1420 0.0000
vt 0.4352 0.1592 0.0000
vt 0.4543 0.1424 0.0000
vt 0.3968 0.1591 0.0000
vt 0.4161 0.1424 0.0000
vt 0.3584 0.1586 0.0000
vt 0.3778 0.1420 0.0000
vt 0.3199 0.1577 0.0000
vt 0.3395 0.1413 0.0000
vt 0.2815 0.1565 0.0000
vt 0.3012 0.1403 0.0000
vt 0.2431 0.1550 0.0000
vt 0.2630 0.1390 0.0000
vt 0.2047 0.1531 0.0000
vt 0.2247 0.1373 0.0000
vt 0.1663 0.1509 0.0000
vt 0.1865 0.1353 0.0000
vt 0.1279 0.1484 0.0000
vt 0.1482 0.1329 0.0000
vt 0.0895 0.1455 0.0000
vt 0.1100 0.1302 0.0000
vt 0.0511 0.1423 0.0000
vt 0.0717 0.1272 0.0000
vt 0.7754 0.0778 0.0000
vt 0.7928 0.0595 0.0000
vt 0.8132 0.0746 0.0000
vt 0.7376 0.0806 0.0000
vt 0.7552 0.0625 0.0000
vt 0.6998 0.0831 0.0000
vt 0.7176 0.0651 0.0000
vt 0.6621 0.0853 0.0000
vt 0.6800 0.0675 0.0000
vt 0.6243 0.0872 0.0000
vt 0.6424 0.0695 0.0000
vt 0.5865 0.0887 0.0000
vt 0.6047 0.0711 0.0000
vt 0.5487 0.0899 0.0000
vt 0.5670 0.0725 0.0000
vt 0.5108 0.0907 0.0000
vt 0.5294 0.0735 0.0000
vt 0.4730 0.0912 0.0000
vt 0.4917 0.0742 0.0000
vt 0.4352 0.0914 0.0000
vt 0.4540 0.0745 0.0000
vt 0.3974 0.0912 0.0000
vt 0.4163 0.0745 0.0000
vt 0.3595 0.0907 0.0000
vt 0.3787 0.0742 0.0000
vt 0.3217 0.0899 0.0000
vt 0.3410 0.0735 0.0000
vt 0.2839 0.0887 0.0000
vt 0.3033 0.0725 0.0000
vt 0.2461 0.0872 0.0000
vt 0.2656 0.0712 0.0000
vt 0.2083 0.0854 0.0000
vt 0.2280 0.0695 0.0000
vt 0.1705 0.0832 0.0000
vt 0.1903 0.0675 0.0000
vt 0.1327 0.0807 0.0000
vt 0.1527 0.0652 0.0000
vt 0.0950 0.0779 0.0000
vt 0.1151 0.0625 0.0000
vt 0.0572 0.0747 0.0000
vt 0.0775 0.0596 0.0000
vt 0.8099 0.0409 0.0000
vt 0.7726 0.0440 0.0000
vt 0.7352 0.0468 0.0000
vt 0.6977 0.0493 0.0000
vt 0.6603 0.0515 0.0000
vt 0.6228 0.0533 0.0000
vt 0.5853 0.0548 0.0000
vt 0.5478 0.0559 0.0000
vt 0.5102 0.0568 0.0000
vt 0.4727 0.0573 0.0000
vt 0.4352 0.0575 0.0000
vt 0.3976 0.0573 0.0000
vt 0.3601 0.0568 0.0000
vt 0.3226 0.0560 0.0000
vt 0.2851 0.0548 0.0000
vt 0.2476 0.0533 0.0000
vt 0.2101 0.0515 0.0000
vt 0.1726 0.0493 0.0000
vt 0.1351 0.0469 0.0000
vt 0.0977 0.0441 0.0000
vt 0.0604 0.0410 0.0000
vt 0.6216 0.5242 0.0000
vt 0.6534 0.5217 0.0000
vt 0.5898 0.5265 0.0000
vt 0.5581 0.5284 0.0000
vt 0.5263 0.5300 0.0000
vt 0.4944 0.5314 0.0000
vt 0.4626 0.5324 0.0000
vt 0.4308 0.5331 0.0000
vt 0.3989 0.5336 0.0000
vt 0.3671 0.5337 0.0000
vt 0.3352 0.5336 0.0000
vt 0.3034 0.5331 0.0000
vt 0.2716 0.5324 0.0000
vt 0.2397 0.5314 0.0000
vt 0.2079 0.5300 0.0000
vt 0.1761 0.5284 0.0000
vt 0.1443 0.5265 0.0000
vt 0.1125 0.5242 0.0000
vt 0.0808 0.5217 0.0000
vt 0.0491 0.5189 0.0000
vt 0.6851 0.5189 0.0000
vt 0.7610 0.6089 0.0000
vt 0.7512 0.5786 0.0000
vt 0.8517 0.5627 0.0000
vt 0.7512 0.5468 0.0000
vt 0.7610 0.5165 0.0000
vt 0.7797 0.4907 0.0000
vt 0.8055 0.4720 0.0000
vt 0.8358 0.4622 0.0000
vt 0.8676 0.4621 0.0000
vt 0.8979 0.4720 0.0000
vt 0.9237 0.4907 0.0000
vt 0.9424 0.5165 0.0000
vt 0.9523 0.5467 0.0000
vt 0.9523 0.5786 0.0000
vt 0.9424 0.6089 0.0000
vt 0.9237 0.6346 0.0000
vt 0.8980 0.6534 0.0000
vt 0.8677 0.6632 0.0000
vt 0.8358 0.6632 0.0000
vt 0.8055 0.6534 0.0000
vt 0.7798 0.6347 0.0000
vt 0.7760 0.8082 0.0000
vt 0.7936 0.7839 0.0000
vt 0.8614 0.8517 0.0000
vt 0.7667 0.8367 0.0000
vt 0.7667 0.8667 0.0000
vt 0.7760 0.8952 0.0000
vt 0.7936 0.9195 0.0000
vt 0.8179 0.9371 0.0000
vt 0.8464 0.9463 0.0000
vt 0.8764 0.9463 0.0000
vt 0.9049 0.9370 0.0000
vt 0.9291 0.9194 0.0000
vt 0.9468 0.8951 0.0000
vt 0.9560 0.8666 0.0000
vt 0.9560 0.8366 0.0000
vt 0.9467 0.8081 0.0000
vt 0.9291 0.7839 0.0000
vt 0.9048 0.7663 0.0000
vt 0.8763 0.7570 0.0000
vt 0.8463 0.7570 0.0000
vt 0.8178 0.7663 0.0000
# 578 texture coords

o Major_low
g Major_low
usemtl Material__25
s off
f 1/1/1 2/2/2 3/3/3 
f 3/3/3 4/4/4 1/1/1 
f 4/4/4 3/3/3 5/5/5 
f 5/5/5 6/6/6 4/4/4 
f 6/6/6 5/5/5 7/7/7 
f 7/7/7 8/8/8 6/6/6 
f 8/8/8 7/7/7 9/9/9 
f 9/9/9 10/10/10 8/8/8 
f 10/10/10 9/9/9 11/11/11 
f 11/11/11 12/12/12 10/10/10 
f 12/12/12 11/11/11 13/13/13 
f 13/13/13 14/14/14 12/12/12 
f 14/14/14 13/13/13 15/15/15 
f 15/15/15 16/16/16 14/14/14 
f 16/16/16 15/15/15 17/17/17 
f 17/17/17 18/18/18 16/16/16 
f 18/18/18 17/17/17 19/19/19 
f 19/19/19 20/20/20 18/18/18 
f 20/20/20 19/19/19 21/21/21 
f 21/21/21 22/22/22 20/20/20 
f 22/22/22 21/21/21 23/23/23 
f 23/23/23 24/24/24 22/22/22 
f 24/24/24 23/23/23 25/25/25 
f 25/25/25 26/26/26 24/24/24 
f 26/26/26 25/25/25 27/27/27 
f 27/27/27 28/28/28 26/26/26 
f 28/28/28 27/27/27 29/29/29 
f 29/29/29 30/30/30 28/28/28 
f 30/30/30 29/29/29 31/31/31 
f 31/31/31 32/32/32 30/30/30 
f 32/32/32 31/31/31 33/33/33 
f 33/33/33 34/34/34 32/32/32 
f 34/34/34 33/33/33 35/35/35 
f 35/35/35 36/36/36 34/34/34 
f 36/36/36 35/35/35 37/37/37 
f 37/37/37 38/38/38 36/36/36 
f 38/38/38 37/37/37 39/39/39 
f 39/39/39 40/40/40 38/38/38 
f 40/40/40 39/39/39 2/2/2 
f 2/2/2 1/1/1 40/40/40 
f 41/41/41 42/42/41 43/43/42 
f 43/43/42 44/44/42 41/41/41 
f 45/45/43 46/46/43 42/42/41 
f 42/42/41 41/41/41 45/45/43 
f 47/47/44 48/48/44 46/46/43 
f 46/46/43 45/45/43 47/47/44 
f 49/49/45 50/50/45 48/48/44 
f 48/48/44 47/47/44 49/49/45 
f 51/51/46 52/52/46 50/50/45 
f 50/50/45 49/49/45 51/51/46 
f 53/53/47 54/54/47 52/52/46 
f 52/52/46 51/51/46 53/53/47 
f 55/55/48 56/56/48 54/54/47 
f 54/54/47 53/53/47 55/55/48 
f 57/57/49 58/58/49 56/56/48 
f 56/56/48 55/55/48 57/57/49 
f 59/59/50 60/60/50 58/58/49 
f 58/58/49 57/57/49 59/59/50 
f 61/61/51 62/62/51 60/60/50 
f 60/60/50 59/59/50 61/61/51 
f 63/63/52 64/64/52 62/62/51 
f 62/62/51 61/61/51 63/63/52 
f 65/65/53 66/66/53 64/64/52 
f 64/64/52 63/63/52 65/65/53 
f 67/67/54 68/68/54 66/66/53 
f 66/66/53 65/65/53 67/67/54 
f 69/69/55 70/70/55 68/68/54 
f 68/68/54 67/67/54 69/69/55 
f 71/71/56 72/72/56 70/70/55 
f 70/70/55 69/69/55 71/71/56 
f 73/73/57 74/74/57 72/72/56 
f 72/72/56 71/71/56 73/73/57 
f 75/75/58 76/76/58 74/74/57 
f 74/74/57 73/73/57 75/75/58 
f 77/77/59 78/78/59 76/76/58 
f 76/76/58 75/75/58 77/77/59 
f 79/79/60 80/80/60 78/78/59 
f 78/78/59 77/77/59 79/79/60 
f 44/81/42 43/82/42 80/80/60 
f 80/80/60 79/79/60 44/81/42 
f 81/83/61 82/84/62 83/85/63 
f 83/85/63 84/86/64 81/83/61 
f 82/84/62 85/87/65 86/88/66 
f 86/88/66 83/85/63 82/84/62 
f 85/87/65 87/89/67 88/90/68 
f 88/90/68 86/88/66 85/87/65 
f 87/89/67 89/91/69 90/92/70 
f 90/92/70 88/90/68 87/89/67 
f 89/91/69 91/93/71 92/94/72 
f 92/94/72 90/92/70 89/91/69 
f 91/93/71 93/95/73 94/96/74 
f 94/96/74 92/94/72 91/93/71 
f 93/95/73 95/97/75 96/98/76 
f 96/98/76 94/96/74 93/95/73 
f 95/97/75 97/99/77 98/100/78 
f 98/100/78 96/98/76 95/97/75 
f 97/99/77 99/101/79 100/102/80 
f 100/102/80 98/100/78 97/99/77 
f 99/101/79 101/103/81 102/104/82 
f 102/104/82 100/102/80 99/101/79 
f 101/103/81 103/105/83 104/106/84 
f 104/106/84 102/104/82 101/103/81 
f 103/105/83 105/107/85 106/108/86 
f 106/108/86 104/106/84 103/105/83 
f 105/107/85 107/109/87 108/110/88 
f 108/110/88 106/108/86 105/107/85 
f 107/109/87 109/111/89 110/112/90 
f 110/112/90 108/110/88 107/109/87 
f 109/111/89 111/113/91 112/114/92 
f 112/114/92 110/112/90 109/111/89 
f 111/113/91 113/115/93 114/116/94 
f 114/116/94 112/114/92 111/113/91 
f 113/115/93 115/117/95 116/118/96 
f 116/118/96 114/116/94 113/115/93 
f 115/117/95 117/119/97 118/120/98 
f 118/120/98 116/118/96 115/117/95 
f 117/119/97 119/121/99 120/122/100 
f 120/122/100 118/120/98 117/119/97 
f 119/121/99 81/123/61 84/124/64 
f 84/124/64 120/122/100 119/121/99 
f 121/125/101 122/126/102 123/127/103 
f 123/127/103 124/128/104 121/125/101 
f 125/129/105 121/125/101 124/128/104 
f 124/128/104 126/130/106 125/129/105 
f 127/131/107 125/129/105 126/130/106 
f 126/130/106 128/132/108 127/131/107 
f 129/133/109 127/131/107 128/132/108 
f 128/132/108 130/134/110 129/133/109 
f 131/135/111 129/133/109 130/134/110 
f 130/134/110 132/136/112 131/135/111 
f 133/137/113 131/135/111 132/136/112 
f 132/136/112 134/138/114 133/137/113 
f 135/139/115 133/137/113 134/138/114 
f 134/138/114 136/140/116 135/139/115 
f 137/141/117 135/139/115 136/140/116 
f 136/140/116 138/142/118 137/141/117 
f 139/143/119 137/141/117 138/142/118 
f 138/142/118 140/144/120 139/143/119 
f 141/145/121 139/143/119 140/144/120 
f 140/144/120 142/146/122 141/145/121 
f 143/147/123 141/145/121 142/146/122 
f 142/146/122 144/148/124 143/147/123 
f 145/149/125 143/147/123 144/148/124 
f 144/148/124 146/150/126 145/149/125 
f 147/151/127 145/149/125 146/150/126 
f 146/150/126 148/152/128 147/151/127 
f 149/153/129 147/151/127 148/152/128 
f 148/152/128 150/154/130 149/153/129 
f 151/155/131 149/153/129 150/154/130 
f 150/154/130 152/156/132 151/155/131 
f 153/157/133 151/155/131 152/156/132 
f 152/156/132 154/158/134 153/157/133 
f 155/159/135 153/157/133 154/158/134 
f 154/158/134 156/160/136 155/159/135 
f 157/161/137 155/159/135 156/160/136 
f 156/160/136 158/162/138 157/161/137 
f 159/163/139 157/161/137 158/162/138 
f 158/162/138 160/164/140 159/163/139 
f 122/165/102 159/163/139 160/164/140 
f 160/164/140 123/166/103 122/165/102 
f 81/167/61 1/1/1 4/4/4 
f 4/4/4 82/168/62 81/167/61 
f 82/168/62 4/4/4 6/6/6 
f 6/6/6 85/169/65 82/168/62 
f 85/169/65 6/6/6 8/8/8 
f 8/8/8 87/170/67 85/169/65 
f 87/170/67 8/8/8 10/10/10 
f 10/10/10 89/171/69 87/170/67 
f 89/171/69 10/10/10 12/12/12 
f 12/12/12 91/172/71 89/171/69 
f 91/172/71 12/12/12 14/14/14 
f 14/14/14 93/173/73 91/172/71 
f 93/173/73 14/14/14 16/16/16 
f 16/16/16 95/174/75 93/173/73 
f 95/174/75 16/16/16 18/18/18 
f 18/18/18 97/175/77 95/174/75 
f 97/175/77 18/18/18 20/20/20 
f 20/20/20 99/176/79 97/175/77 
f 99/176/79 20/20/20 22/22/22 
f 22/22/22 101/177/81 99/176/79 
f 101/177/81 22/22/22 24/24/24 
f 24/24/24 103/178/83 101/177/81 
f 103/178/83 24/24/24 26/26/26 
f 26/26/26 105/179/85 103/178/83 
f 105/179/85 26/26/26 28/28/28 
f 28/28/28 107/180/87 105/179/85 
f 107/180/87 28/28/28 30/30/30 
f 30/30/30 109/181/89 107/180/87 
f 109/181/89 30/30/30 32/32/32 
f 32/32/32 111/182/91 109/181/89 
f 111/182/91 32/32/32 34/34/34 
f 34/34/34 113/183/93 111/182/91 
f 113/183/93 34/34/34 36/36/36 
f 36/36/36 115/184/95 113/183/93 
f 115/184/95 36/36/36 38/38/38 
f 38/38/38 117/185/97 115/184/95 
f 117/185/97 38/38/38 40/40/40 
f 40/40/40 119/186/99 117/185/97 
f 119/186/99 40/40/40 1/1/1 
f 1/1/1 81/167/61 119/186/99 
f 123/187/103 43/188/141 42/189/142 
f 42/189/142 124/190/104 123/187/103 
f 124/190/104 42/189/142 46/191/143 
f 46/191/143 126/192/106 124/190/104 
f 126/192/106 46/191/143 48/193/144 
f 48/193/144 128/194/108 126/192/106 
f 128/194/108 48/193/144 50/195/145 
f 50/195/145 130/196/110 128/194/108 
f 130/196/110 50/195/145 52/197/146 
f 52/197/146 132/198/112 130/196/110 
f 132/198/112 52/197/146 54/199/147 
f 54/199/147 134/200/114 132/198/112 
f 134/200/114 54/199/147 56/201/148 
f 56/201/148 136/202/116 134/200/114 
f 136/202/116 56/201/148 58/203/149 
f 58/203/149 138/204/118 136/202/116 
f 138/204/118 58/203/149 60/205/150 
f 60/205/150 140/206/120 138/204/118 
f 140/206/120 60/205/150 62/207/151 
f 62/207/151 142/208/122 140/206/120 
f 142/208/122 62/207/151 64/209/152 
f 64/209/152 144/210/124 142/208/122 
f 144/210/124 64/209/152 66/211/153 
f 66/211/153 146/212/126 144/210/124 
f 146/212/126 66/211/153 68/213/154 
f 68/213/154 148/214/128 146/212/126 
f 148/214/128 68/213/154 70/215/155 
f 70/215/155 150/216/130 148/214/128 
f 150/216/130 70/215/155 72/217/156 
f 72/217/156 152/218/132 150/216/130 
f 152/218/132 72/217/156 74/219/157 
f 74/219/157 154/220/134 152/218/132 
f 154/220/134 74/219/157 76/221/158 
f 76/221/158 156/222/136 154/220/134 
f 156/222/136 76/221/158 78/223/159 
f 78/223/159 158/224/138 156/222/136 
f 158/224/138 78/223/159 80/225/160 
f 80/225/160 160/226/140 158/224/138 
f 160/226/140 80/225/160 43/227/141 
f 43/227/141 123/228/103 160/226/140 
f 161/229/161 162/230/162 163/231/163 
f 164/232/164 165/233/165 161/229/161 
f 166/234/166 167/235/167 164/232/164 
f 168/236/168 169/237/169 166/234/166 
f 170/238/170 171/239/171 168/236/168 
f 172/240/172 173/241/173 170/238/170 
f 174/242/174 175/243/175 172/240/172 
f 176/244/176 177/245/177 174/242/174 
f 178/246/178 179/247/179 176/244/176 
f 180/248/180 181/249/181 178/246/178 
f 182/250/182 183/251/183 180/248/180 
f 184/252/184 185/253/185 182/250/182 
f 186/254/186 187/255/187 184/252/184 
f 188/256/188 189/257/189 186/254/186 
f 190/258/190 191/259/191 188/256/188 
f 192/260/192 193/261/193 190/258/190 
f 194/262/194 195/263/195 192/260/192 
f 196/264/196 197/265/197 194/262/194 
f 198/266/198 199/267/199 196/264/196 
f 163/268/163 200/269/200 198/266/198 
f 201/270/161 202/271/201 203/272/163 
f 204/273/164 205/274/202 201/270/161 
f 206/275/166 207/276/203 204/273/164 
f 208/277/168 209/278/204 206/275/166 
f 210/279/170 211/280/205 208/277/168 
f 212/281/172 213/282/206 210/279/170 
f 214/283/174 215/284/207 212/281/172 
f 216/285/176 217/286/208 214/283/174 
f 218/287/178 219/288/209 216/285/176 
f 220/289/180 221/290/210 218/287/178 
f 222/291/182 223/292/211 220/289/180 
f 224/293/184 225/294/212 222/291/182 
f 226/295/186 227/296/213 224/293/184 
f 228/297/188 229/298/214 226/295/186 
f 230/299/190 231/300/215 228/297/188 
f 232/301/192 233/302/216 230/299/190 
f 234/303/194 235/304/217 232/301/192 
f 236/305/196 237/306/218 234/303/194 
f 238/307/198 239/308/219 236/305/196 
f 203/309/163 240/310/220 238/307/198 
f 241/311/161 242/312/162 243/313/163 
f 244/314/164 245/315/165 241/311/161 
f 246/316/166 247/317/167 244/314/164 
f 248/318/168 249/319/169 246/316/166 
f 250/320/170 251/321/171 248/318/168 
f 252/322/172 253/323/173 250/320/170 
f 254/324/174 255/325/175 252/322/172 
f 256/326/176 257/327/177 254/324/174 
f 258/328/178 259/329/179 256/326/176 
f 260/330/180 261/331/181 258/328/178 
f 262/332/182 263/333/183 260/330/180 
f 264/334/184 265/335/185 262/332/182 
f 266/336/186 267/337/187 264/334/184 
f 268/338/188 269/339/189 266/336/186 
f 270/340/190 271/341/191 268/338/188 
f 272/342/192 273/343/193 270/340/190 
f 274/344/194 275/345/195 272/342/192 
f 276/346/196 277/347/197 274/344/194 
f 278/348/198 279/349/199 276/346/196 
f 243/350/163 280/351/200 278/348/198 
f 121/125/101 281/352/201 122/126/102 
f 125/129/105 282/353/202 121/125/101 
f 127/131/107 283/354/203 125/129/105 
f 129/133/109 284/355/204 127/131/107 
f 131/135/111 285/356/205 129/133/109 
f 133/137/113 286/357/206 131/135/111 
f 135/139/115 287/358/207 133/137/113 
f 137/141/117 288/359/208 135/139/115 
f 139/143/119 289/360/209 137/141/117 
f 141/145/121 290/361/210 139/143/119 
f 143/147/123 291/362/211 141/145/121 
f 145/149/125 292/363/212 143/147/123 
f 147/151/127 293/364/213 145/149/125 
f 149/153/129 294/365/214 147/151/127 
f 151/155/131 295/366/215 149/153/129 
f 153/157/133 296/367/216 151/155/131 
f 155/159/135 297/368/217 153/157/133 
f 157/161/137 298/369/218 155/159/135 
f 159/163/139 299/370/219 157/161/137 
f 122/165/102 300/371/220 159/163/139 
f 301/372/161 302/373/201 303/374/163 
f 304/375/164 305/376/202 301/372/161 
f 306/377/166 307/378/203 304/375/164 
f 308/379/168 309/380/204 306/377/166 
f 310/381/170 311/382/205 308/379/168 
f 312/383/172 313/384/206 310/381/170 
f 314/385/174 315/386/207 312/383/172 
f 316/387/176 317/388/208 314/385/174 
f 318/389/178 319/390/209 316/387/176 
f 320/391/180 321/392/210 318/389/178 
f 322/393/182 323/394/211 320/391/180 
f 324/395/184 325/396/212 322/393/182 
f 326/397/186 327/398/213 324/395/184 
f 328/399/188 329/400/214 326/397/186 
f 330/401/190 331/402/215 328/399/188 
f 332/403/192 333/404/216 330/401/190 
f 334/405/194 335/406/217 332/403/192 
f 336/407/196 337/408/218 334/405/194 
f 338/409/198 339/410/219 336/407/196 
f 303/411/163 340/412/220 338/409/198 
f 341/413/161 342/414/162 343/415/163 
f 344/416/164 345/417/165 341/413/161 
f 346/418/166 347/419/167 344/416/164 
f 348/420/168 349/421/169 346/418/166 
f 350/422/170 351/423/171 348/420/168 
f 352/424/172 353/425/173 350/422/170 
f 354/426/174 355/427/175 352/424/172 
f 356/428/176 357/429/177 354/426/174 
f 358/430/178 359/431/179 356/428/176 
f 360/432/180 361/433/181 358/430/178 
f 362/434/182 363/435/183 360/432/180 
f 364/436/184 365/437/185 362/434/182 
f 366/438/186 367/439/187 364/436/184 
f 368/440/188 369/441/189 366/438/186 
f 370/442/190 371/443/191 368/440/188 
f 372/444/192 373/445/193 370/442/190 
f 374/446/194 375/447/195 372/444/192 
f 376/448/196 377/449/197 374/446/194 
f 378/450/198 379/451/199 376/448/196 
f 343/452/163 380/453/200 378/450/198 
f 381/454/221 382/455/162 383/456/222 
f 384/457/223 385/458/165 381/454/221 
f 386/459/224 387/460/167 384/457/223 
f 388/461/225 389/462/169 386/459/224 
f 390/463/226 391/464/171 388/461/225 
f 392/465/227 393/466/173 390/463/226 
f 394/467/228 395/468/175 392/465/227 
f 396/469/229 397/470/177 394/467/228 
f 398/471/230 399/472/179 396/469/229 
f 400/473/231 401/474/181 398/471/230 
f 402/475/232 403/476/183 400/473/231 
f 404/477/233 405/478/185 402/475/232 
f 406/479/234 407/480/187 404/477/233 
f 408/481/235 409/482/189 406/479/234 
f 410/483/236 411/484/191 408/481/235 
f 412/485/237 413/486/193 410/483/236 
f 414/487/238 415/488/195 412/485/237 
f 416/489/239 417/490/197 414/487/238 
f 418/491/240 419/492/199 416/489/239 
f 383/493/222 420/494/200 418/491/240 
f 120/122/100 84/124/64 421/495/241 
f 421/495/241 422/496/242 120/122/100 
f 118/120/98 120/122/100 422/496/242 
f 422/496/242 423/497/243 118/120/98 
f 116/118/96 118/120/98 423/497/243 
f 423/497/243 424/498/244 116/118/96 
f 114/116/94 116/118/96 424/498/244 
f 424/498/244 425/499/245 114/116/94 
f 112/114/92 114/116/94 425/499/245 
f 425/499/245 426/500/246 112/114/92 
f 110/112/90 112/114/92 426/500/246 
f 426/500/246 427/501/247 110/112/90 
f 108/110/88 110/112/90 427/501/247 
f 427/501/247 428/502/248 108/110/88 
f 106/108/86 108/110/88 428/502/248 
f 428/502/248 429/503/249 106/108/86 
f 104/106/84 106/108/86 429/503/249 
f 429/503/249 430/504/250 104/106/84 
f 102/104/82 104/106/84 430/504/250 
f 430/504/250 431/505/251 102/104/82 
f 100/102/80 102/104/82 431/505/251 
f 431/505/251 432/506/252 100/102/80 
f 98/100/78 100/102/80 432/506/252 
f 432/506/252 433/507/253 98/100/78 
f 96/98/76 98/100/78 433/507/253 
f 433/507/253 434/508/254 96/98/76 
f 94/96/74 96/98/76 434/508/254 
f 434/508/254 435/509/255 94/96/74 
f 92/94/72 94/96/74 435/509/255 
f 435/509/255 436/510/256 92/94/72 
f 90/92/70 92/94/72 436/510/256 
f 436/510/256 437/511/257 90/92/70 
f 88/90/68 90/92/70 437/511/257 
f 437/511/257 438/512/258 88/90/68 
f 86/88/66 88/90/68 438/512/258 
f 438/512/258 439/513/259 86/88/66 
f 83/85/63 86/88/66 439/513/259 
f 439/513/259 440/514/260 83/85/63 
f 84/86/64 83/85/63 440/514/260 
f 440/514/260 421/515/241 84/86/64 
f 441/516/59 442/517/60 79/79/60 
f 79/79/60 77/77/59 441/516/59 
f 443/518/58 441/516/59 77/77/59 
f 77/77/59 75/75/58 443/518/58 
f 444/519/57 443/518/58 75/75/58 
f 75/75/58 73/73/57 444/519/57 
f 445/520/56 444/519/57 73/73/57 
f 73/73/57 71/71/56 445/520/56 
f 446/521/55 445/520/56 71/71/56 
f 71/71/56 69/69/55 446/521/55 
f 447/522/54 446/521/55 69/69/55 
f 69/69/55 67/67/54 447/522/54 
f 448/523/53 447/522/54 67/67/54 
f 67/67/54 65/65/53 448/523/53 
f 449/524/52 448/523/53 65/65/53 
f 65/65/53 63/63/52 449/524/52 
f 450/525/51 449/524/52 63/63/52 
f 63/63/52 61/61/51 450/525/51 
f 451/526/50 450/525/51 61/61/51 
f 61/61/51 59/59/50 451/526/50 
f 452/527/49 451/526/50 59/59/50 
f 59/59/50 57/57/49 452/527/49 
f 453/528/48 452/527/49 57/57/49 
f 57/57/49 55/55/48 453/528/48 
f 454/529/47 453/528/48 55/55/48 
f 55/55/48 53/53/47 454/529/47 
f 455/530/46 454/529/47 53/53/47 
f 53/53/47 51/51/46 455/530/46 
f 456/531/45 455/530/46 51/51/46 
f 51/51/46 49/49/45 456/531/45 
f 457/532/44 456/531/45 49/49/45 
f 49/49/45 47/47/44 457/532/44 
f 458/533/43 457/532/44 47/47/44 
f 47/47/44 45/45/43 458/533/43 
f 459/534/41 458/533/43 45/45/43 
f 45/45/43 41/41/41 459/534/41 
f 460/535/42 459/534/41 41/41/41 
f 41/41/41 44/44/42 460/535/42 
f 442/517/60 460/536/42 44/81/42 
f 44/81/42 79/79/60 442/517/60 
f 442/537/261 441/538/261 461/539/261 
f 441/538/261 443/540/261 461/539/261 
f 443/540/261 444/541/261 461/539/261 
f 444/541/261 445/542/261 461/539/261 
f 445/542/261 446/543/261 461/539/261 
f 446/543/261 447/544/261 461/539/261 
f 447/544/261 448/545/261 461/539/261 
f 448/545/261 449/546/261 461/539/261 
f 449/546/261 450/547/261 461/539/261 
f 450/547/261 451/548/261 461/539/261 
f 451/548/261 452/549/261 461/539/261 
f 452/549/261 453/550/261 461/539/261 
f 453/550/261 454/551/261 461/539/261 
f 454/551/261 455/552/261 461/539/261 
f 455/552/261 456/553/261 461/539/261 
f 456/553/261 457/554/261 461/539/261 
f 457/554/261 458/555/261 461/539/261 
f 458/555/261 459/556/261 461/539/261 
f 459/556/261 460/557/261 461/539/261 
f 460/557/261 442/537/261 461/539/261 
f 5/558/5 3/559/3 462/560/262 
f 7/561/7 5/558/5 462/560/262 
f 9/562/9 7/561/7 462/560/262 
f 11/563/11 9/562/9 462/560/262 
f 13/564/13 11/563/11 462/560/262 
f 15/565/15 13/564/13 462/560/262 
f 17/566/17 15/565/15 462/560/262 
f 19/567/19 17/566/17 462/560/262 
f 21/568/21 19/567/19 462/560/262 
f 23/569/23 21/568/21 462/560/262 
f 25/570/25 23/569/23 462/560/262 
f 27/571/27 25/570/25 462/560/262 
f 29/572/29 27/571/27 462/560/262 
f 31/573/31 29/572/29 462/560/262 
f 33/574/33 31/573/31 462/560/262 
f 35/575/35 33/574/33 462/560/262 
f 37/576/37 35/575/35 462/560/262 
f 39/577/39 37/576/37 462/560/262 
f 2/578/2 39/577/39 462/560/262 
f 3/559/3 2/578/2 462/560/262 
f 341/413/161 343/415/163 162/230/162 
f 162/230/162 343/415/163 163/231/163 
f 341/413/161 162/230/162 161/229/161 
f 344/416/164 341/413/161 165/233/165 
f 165/233/165 341/413/161 161/229/161 
f 344/416/164 165/233/165 164/232/164 
f 346/418/166 344/416/164 167/235/167 
f 167/235/167 344/416/164 164/232/164 
f 346/418/166 167/235/167 166/234/166 
f 348/420/168 346/418/166 169/237/169 
f 169/237/169 346/418/166 166/234/166 
f 348/420/168 169/237/169 168/236/168 
f 350/422/170 348/420/168 171/239/171 
f 171/239/171 348/420/168 168/236/168 
f 350/422/170 171/239/171 170/238/170 
f 352/424/172 350/422/170 173/241/173 
f 173/241/173 350/422/170 170/238/170 
f 352/424/172 173/241/173 172/240/172 
f 354/426/174 352/424/172 175/243/175 
f 175/243/175 352/424/172 172/240/172 
f 354/426/174 175/243/175 174/242/174 
f 356/428/176 354/426/174 177/245/177 
f 177/245/177 354/426/174 174/242/174 
f 356/428/176 177/245/177 176/244/176 
f 358/430/178 356/428/176 179/247/179 
f 179/247/179 356/428/176 176/244/176 
f 358/430/178 179/247/179 178/246/178 
f 360/432/180 358/430/178 181/249/181 
f 181/249/181 358/430/178 178/246/178 
f 360/432/180 181/249/181 180/248/180 
f 362/434/182 360/432/180 183/251/183 
f 183/251/183 360/432/180 180/248/180 
f 362/434/182 183/251/183 182/250/182 
f 364/436/184 362/434/182 185/253/185 
f 185/253/185 362/434/182 182/250/182 
f 364/436/184 185/253/185 184/252/184 
f 366/438/186 364/436/184 187/255/187 
f 187/255/187 364/436/184 184/252/184 
f 366/438/186 187/255/187 186/254/186 
f 368/440/188 366/438/186 189/257/189 
f 189/257/189 366/438/186 186/254/186 
f 368/440/188 189/257/189 188/256/188 
f 370/442/190 368/440/188 191/259/191 
f 191/259/191 368/440/188 188/256/188 
f 370/442/190 191/259/191 190/258/190 
f 372/444/192 370/442/190 193/261/193 
f 193/261/193 370/442/190 190/258/190 
f 372/444/192 193/261/193 192/260/192 
f 374/446/194 372/444/192 195/263/195 
f 195/263/195 372/444/192 192/260/192 
f 374/446/194 195/263/195 194/262/194 
f 376/448/196 374/446/194 197/265/197 
f 197/265/197 374/446/194 194/262/194 
f 376/448/196 197/265/197 196/264/196 
f 378/450/198 376/448/196 199/267/199 
f 199/267/199 376/448/196 196/264/196 
f 378/450/198 199/267/199 198/266/198 
f 343/452/163 378/450/198 200/269/200 
f 200/269/200 378/450/198 198/266/198 
f 343/452/163 200/269/200 163/268/163 
f 301/372/161 303/374/163 202/271/201 
f 202/271/201 303/374/163 203/272/163 
f 301/372/161 202/271/201 201/270/161 
f 304/375/164 301/372/161 205/274/202 
f 205/274/202 301/372/161 201/270/161 
f 304/375/164 205/274/202 204/273/164 
f 306/377/166 304/375/164 207/276/203 
f 207/276/203 304/375/164 204/273/164 
f 306/377/166 207/276/203 206/275/166 
f 308/379/168 306/377/166 209/278/204 
f 209/278/204 306/377/166 206/275/166 
f 308/379/168 209/278/204 208/277/168 
f 310/381/170 308/379/168 211/280/205 
f 211/280/205 308/379/168 208/277/168 
f 310/381/170 211/280/205 210/279/170 
f 312/383/172 310/381/170 213/282/206 
f 213/282/206 310/381/170 210/279/170 
f 312/383/172 213/282/206 212/281/172 
f 314/385/174 312/383/172 215/284/207 
f 215/284/207 312/383/172 212/281/172 
f 314/385/174 215/284/207 214/283/174 
f 316/387/176 314/385/174 217/286/208 
f 217/286/208 314/385/174 214/283/174 
f 316/387/176 217/286/208 216/285/176 
f 318/389/178 316/387/176 219/288/209 
f 219/288/209 316/387/176 216/285/176 
f 318/389/178 219/288/209 218/287/178 
f 320/391/180 318/389/178 221/290/210 
f 221/290/210 318/389/178 218/287/178 
f 320/391/180 221/290/210 220/289/180 
f 322/393/182 320/391/180 223/292/211 
f 223/292/211 320/391/180 220/289/180 
f 322/393/182 223/292/211 222/291/182 
f 324/395/184 322/393/182 225/294/212 
f 225/294/212 322/393/182 222/291/182 
f 324/395/184 225/294/212 224/293/184 
f 326/397/186 324/395/184 227/296/213 
f 227/296/213 324/395/184 224/293/184 
f 326/397/186 227/296/213 226/295/186 
f 328/399/188 326/397/186 229/298/214 
f 229/298/214 326/397/186 226/295/186 
f 328/399/188 229/298/214 228/297/188 
f 330/401/190 328/399/188 231/300/215 
f 231/300/215 328/399/188 228/297/188 
f 330/401/190 231/300/215 230/299/190 
f 332/403/192 330/401/190 233/302/216 
f 233/302/216 330/401/190 230/299/190 
f 332/403/192 233/302/216 232/301/192 
f 334/405/194 332/403/192 235/304/217 
f 235/304/217 332/403/192 232/301/192 
f 334/405/194 235/304/217 234/303/194 
f 336/407/196 334/405/194 237/306/218 
f 237/306/218 334/405/194 234/303/194 
f 336/407/196 237/306/218 236/305/196 
f 338/409/198 336/407/196 239/308/219 
f 239/308/219 336/407/196 236/305/196 
f 338/409/198 239/308/219 238/307/198 
f 303/411/163 338/409/198 240/310/220 
f 240/310/220 338/409/198 238/307/198 
f 303/411/163 240/310/220 203/309/163 
f 381/454/221 383/456/222 242/312/162 
f 242/312/162 383/456/222 243/313/163 
f 381/454/221 242/312/162 241/311/161 
f 384/457/223 381/454/221 245/315/165 
f 245/315/165 381/454/221 241/311/161 
f 384/457/223 245/315/165 244/314/164 
f 386/459/224 384/457/223 247/317/167 
f 247/317/167 384/457/223 244/314/164 
f 386/459/224 247/317/167 246/316/166 
f 388/461/225 386/459/224 249/319/169 
f 249/319/169 386/459/224 246/316/166 
f 388/461/225 249/319/169 248/318/168 
f 390/463/226 388/461/225 251/321/171 
f 251/321/171 388/461/225 248/318/168 
f 390/463/226 251/321/171 250/320/170 
f 392/465/227 390/463/226 253/323/173 
f 253/323/173 390/463/226 250/320/170 
f 392/465/227 253/323/173 252/322/172 
f 394/467/228 392/465/227 255/325/175 
f 255/325/175 392/465/227 252/322/172 
f 394/467/228 255/325/175 254/324/174 
f 396/469/229 394/467/228 257/327/177 
f 257/327/177 394/467/228 254/324/174 
f 396/469/229 257/327/177 256/326/176 
f 398/471/230 396/469/229 259/329/179 
f 259/329/179 396/469/229 256/326/176 
f 398/471/230 259/329/179 258/328/178 
f 400/473/231 398/471/230 261/331/181 
f 261/331/181 398/471/230 258/328/178 
f 400/473/231 261/331/181 260/330/180 
f 402/475/232 400/473/231 263/333/183 
f 263/333/183 400/473/231 260/330/180 
f 402/475/232 263/333/183 262/332/182 
f 404/477/233 402/475/232 265/335/185 
f 265/335/185 402/475/232 262/332/182 
f 404/477/233 265/335/185 264/334/184 
f 406/479/234 404/477/233 267/337/187 
f 267/337/187 404/477/233 264/334/184 
f 406/479/234 267/337/187 266/336/186 
f 408/481/235 406/479/234 269/339/189 
f 269/339/189 406/479/234 266/336/186 
f 408/481/235 269/339/189 268/338/188 
f 410/483/236 408/481/235 271/341/191 
f 271/341/191 408/481/235 268/338/188 
f 410/483/236 271/341/191 270/340/190 
f 412/485/237 410/483/236 273/343/193 
f 273/343/193 410/483/236 270/340/190 
f 412/485/237 273/343/193 272/342/192 
f 414/487/238 412/485/237 275/345/195 
f 275/345/195 412/485/237 272/342/192 
f 414/487/238 275/345/195 274/344/194 
f 416/489/239 414/487/238 277/347/197 
f 277/347/197 414/487/238 274/344/194 
f 416/489/239 277/347/197 276/346/196 
f 418/491/240 416/489/239 279/349/199 
f 279/349/199 416/489/239 276/346/196 
f 418/491/240 279/349/199 278/348/198 
f 383/493/222 418/491/240 280/351/200 
f 280/351/200 418/491/240 278/348/198 
f 383/493/222 280/351/200 243/350/163 
f 201/270/161 203/272/163 281/352/201 
f 281/352/201 203/272/163 122/126/102 
f 201/270/161 281/352/201 121/125/101 
f 204/273/164 201/270/161 282/353/202 
f 282/353/202 201/270/161 121/125/101 
f 204/273/164 282/353/202 125/129/105 
f 206/275/166 204/273/164 283/354/203 
f 283/354/203 204/273/164 125/129/105 
f 206/275/166 283/354/203 127/131/107 
f 208/277/168 206/275/166 284/355/204 
f 284/355/204 206/275/166 127/131/107 
f 208/277/168 284/355/204 129/133/109 
f 210/279/170 208/277/168 285/356/205 
f 285/356/205 208/277/168 129/133/109 
f 210/279/170 285/356/205 131/135/111 
f 212/281/172 210/279/170 286/357/206 
f 286/357/206 210/279/170 131/135/111 
f 212/281/172 286/357/206 133/137/113 
f 214/283/174 212/281/172 287/358/207 
f 287/358/207 212/281/172 133/137/113 
f 214/283/174 287/358/207 135/139/115 
f 216/285/176 214/283/174 288/359/208 
f 288/359/208 214/283/174 135/139/115 
f 216/285/176 288/359/208 137/141/117 
f 218/287/178 216/285/176 289/360/209 
f 289/360/209 216/285/176 137/141/117 
f 218/287/178 289/360/209 139/143/119 
f 220/289/180 218/287/178 290/361/210 
f 290/361/210 218/287/178 139/143/119 
f 220/289/180 290/361/210 141/145/121 
f 222/291/182 220/289/180 291/362/211 
f 291/362/211 220/289/180 141/145/121 
f 222/291/182 291/362/211 143/147/123 
f 224/293/184 222/291/182 292/363/212 
f 292/363/212 222/291/182 143/147/123 
f 224/293/184 292/363/212 145/149/125 
f 226/295/186 224/293/184 293/364/213 
f 293/364/213 224/293/184 145/149/125 
f 226/295/186 293/364/213 147/151/127 
f 228/297/188 226/295/186 294/365/214 
f 294/365/214 226/295/186 147/151/127 
f 228/297/188 294/365/214 149/153/129 
f 230/299/190 228/297/188 295/366/215 
f 295/366/215 228/297/188 149/153/129 
f 230/299/190 295/366/215 151/155/131 
f 232/301/192 230/299/190 296/367/216 
f 296/367/216 230/299/190 151/155/131 
f 232/301/192 296/367/216 153/157/133 
f 234/303/194 232/301/192 297/368/217 
f 297/368/217 232/301/192 153/157/133 
f 234/303/194 297/368/217 155/159/135 
f 236/305/196 234/303/194 298/369/218 
f 298/369/218 234/303/194 155/159/135 
f 236/305/196 298/369/218 157/161/137 
f 238/307/198 236/305/196 299/370/219 
f 299/370/219 236/305/196 157/161/137 
f 238/307/198 299/370/219 159/163/139 
f 203/309/163 238/307/198 300/371/220 
f 300/371/220 238/307/198 159/163/139 
f 203/309/163 300/371/220 122/165/102 
f 161/229/161 163/231/163 302/373/201 
f 302/373/201 163/231/163 303/374/163 
f 161/229/161 302/373/201 301/372/161 
f 164/232/164 161/229/161 305/376/202 
f 305/376/202 161/229/161 301/372/161 
f 164/232/164 305/376/202 304/375/164 
f 166/234/166 164/232/164 307/378/203 
f 307/378/203 164/232/164 304/375/164 
f 166/234/166 307/378/203 306/377/166 
f 168/236/168 166/234/166 309/380/204 
f 309/380/204 166/234/166 306/377/166 
f 168/236/168 309/380/204 308/379/168 
f 170/238/170 168/236/168 311/382/205 
f 311/382/205 168/236/168 308/379/168 
f 170/238/170 311/382/205 310/381/170 
f 172/240/172 170/238/170 313/384/206 
f 313/384/206 170/238/170 310/381/170 
f 172/240/172 313/384/206 312/383/172 
f 174/242/174 172/240/172 315/386/207 
f 315/386/207 172/240/172 312/383/172 
f 174/242/174 315/386/207 314/385/174 
f 176/244/176 174/242/174 317/388/208 
f 317/388/208 174/242/174 314/385/174 
f 176/244/176 317/388/208 316/387/176 
f 178/246/178 176/244/176 319/390/209 
f 319/390/209 176/244/176 316/387/176 
f 178/246/178 319/390/209 318/389/178 
f 180/248/180 178/246/178 321/392/210 
f 321/392/210 178/246/178 318/389/178 
f 180/248/180 321/392/210 320/391/180 
f 182/250/182 180/248/180 323/394/211 
f 323/394/211 180/248/180 320/391/180 
f 182/250/182 323/394/211 322/393/182 
f 184/252/184 182/250/182 325/396/212 
f 325/396/212 182/250/182 322/393/182 
f 184/252/184 325/396/212 324/395/184 
f 186/254/186 184/252/184 327/398/213 
f 327/398/213 184/252/184 324/395/184 
f 186/254/186 327/398/213 326/397/186 
f 188/256/188 186/254/186 329/400/214 
f 329/400/214 186/254/186 326/397/186 
f 188/256/188 329/400/214 328/399/188 
f 190/258/190 188/256/188 331/402/215 
f 331/402/215 188/256/188 328/399/188 
f 190/258/190 331/402/215 330/401/190 
f 192/260/192 190/258/190 333/404/216 
f 333/404/216 190/258/190 330/401/190 
f 192/260/192 333/404/216 332/403/192 
f 194/262/194 192/260/192 335/406/217 
f 335/406/217 192/260/192 332/403/192 
f 194/262/194 335/406/217 334/405/194 
f 196/264/196 194/262/194 337/408/218 
f 337/408/218 194/262/194 334/405/194 
f 196/264/196 337/408/218 336/407/196 
f 198/266/198 196/264/196 339/410/219 
f 339/410/219 196/264/196 336/407/196 
f 198/266/198 339/410/219 338/409/198 
f 163/268/163 198/266/198 340/412/220 
f 340/412/220 198/266/198 338/409/198 
f 163/268/163 340/412/220 303/411/163 
f 241/311/161 243/313/163 342/414/162 
f 342/414/162 243/313/163 343/415/163 
f 241/311/161 342/414/162 341/413/161 
f 244/314/164 241/311/161 345/417/165 
f 345/417/165 241/311/161 341/413/161 
f 244/314/164 345/417/165 344/416/164 
f 246/316/166 244/314/164 347/419/167 
f 347/419/167 244/314/164 344/416/164 
f 246/316/166 347/419/167 346/418/166 
f 248/318/168 246/316/166 349/421/169 
f 349/421/169 246/316/166 346/418/166 
f 248/318/168 349/421/169 348/420/168 
f 250/320/170 248/318/168 351/423/171 
f 351/423/171 248/318/168 348/420/168 
f 250/320/170 351/423/171 350/422/170 
f 252/322/172 250/320/170 353/425/173 
f 353/425/173 250/320/170 350/422/170 
f 252/322/172 353/425/173 352/424/172 
f 254/324/174 252/322/172 355/427/175 
f 355/427/175 252/322/172 352/424/172 
f 254/324/174 355/427/175 354/426/174 
f 256/326/176 254/324/174 357/429/177 
f 357/429/177 254/324/174 354/426/174 
f 256/326/176 357/429/177 356/428/176 
f 258/328/178 256/326/176 359/431/179 
f 359/431/179 256/326/176 356/428/176 
f 258/328/178 359/431/179 358/430/178 
f 260/330/180 258/328/178 361/433/181 
f 361/433/181 258/328/178 358/430/178 
f 260/330/180 361/433/181 360/432/180 
f 262/332/182 260/330/180 363/435/183 
f 363/435/183 260/330/180 360/432/180 
f 262/332/182 363/435/183 362/434/182 
f 264/334/184 262/332/182 365/437/185 
f 365/437/185 262/332/182 362/434/182 
f 264/334/184 365/437/185 364/436/184 
f 266/336/186 264/334/184 367/439/187 
f 367/439/187 264/334/184 364/436/184 
f 266/336/186 367/439/187 366/438/186 
f 268/338/188 266/336/186 369/441/189 
f 369/441/189 266/336/186 366/438/186 
f 268/338/188 369/441/189 368/440/188 
f 270/340/190 268/338/188 371/443/191 
f 371/443/191 268/338/188 368/440/188 
f 270/340/190 371/443/191 370/442/190 
f 272/342/192 270/340/190 373/445/193 
f 373/445/193 270/340/190 370/442/190 
f 272/342/192 373/445/193 372/444/192 
f 274/344/194 272/342/192 375/447/195 
f 375/447/195 272/342/192 372/444/192 
f 274/344/194 375/447/195 374/446/194 
f 276/346/196 274/344/194 377/449/197 
f 377/449/197 274/344/194 374/446/194 
f 276/346/196 377/449/197 376/448/196 
f 278/348/198 276/346/196 379/451/199 
f 379/451/199 276/346/196 376/448/196 
f 278/348/198 379/451/199 378/450/198 
f 243/350/163 278/348/198 380/453/200 
f 380/453/200 278/348/198 378/450/198 
f 243/350/163 380/453/200 343/452/163 
f 422/496/242 421/495/241 382/455/162 
f 382/455/162 421/495/241 383/456/222 
f 422/496/242 382/455/162 381/454/221 
f 423/497/243 422/496/242 385/458/165 
f 385/458/165 422/496/242 381/454/221 
f 423/497/243 385/458/165 384/457/223 
f 424/498/244 423/497/243 387/460/167 
f 387/460/167 423/497/243 384/457/223 
f 424/498/244 387/460/167 386/459/224 
f 425/499/245 424/498/244 389/462/169 
f 389/462/169 424/498/244 386/459/224 
f 425/499/245 389/462/169 388/461/225 
f 426/500/246 425/499/245 391/464/171 
f 391/464/171 425/499/245 388/461/225 
f 426/500/246 391/464/171 390/463/226 
f 427/501/247 426/500/246 393/466/173 
f 393/466/173 426/500/246 390/463/226 
f 427/501/247 393/466/173 392/465/227 
f 428/502/248 427/501/247 395/468/175 
f 395/468/175 427/501/247 392/465/227 
f 428/502/248 395/468/175 394/467/228 
f 429/503/249 428/502/248 397/470/177 
f 397/470/177 428/502/248 394/467/228 
f 429/503/249 397/470/177 396/469/229 
f 430/504/250 429/503/249 399/472/179 
f 399/472/179 429/503/249 396/469/229 
f 430/504/250 399/472/179 398/471/230 
f 431/505/251 430/504/250 401/474/181 
f 401/474/181 430/504/250 398/471/230 
f 431/505/251 401/474/181 400/473/231 
f 432/506/252 431/505/251 403/476/183 
f 403/476/183 431/505/251 400/473/231 
f 432/506/252 403/476/183 402/475/232 
f 433/507/253 432/506/252 405/478/185 
f 405/478/185 432/506/252 402/475/232 
f 433/507/253 405/478/185 404/477/233 
f 434/508/254 433/507/253 407/480/187 
f 407/480/187 433/507/253 404/477/233 
f 434/508/254 407/480/187 406/479/234 
f 435/509/255 434/508/254 409/482/189 
f 409/482/189 434/508/254 406/479/234 
f 435/509/255 409/482/189 408/481/235 
f 436/510/256 435/509/255 411/484/191 
f 411/484/191 435/509/255 408/481/235 
f 436/510/256 411/484/191 410/483/236 
f 437/511/257 436/510/256 413/486/193 
f 413/486/193 436/510/256 410/483/236 
f 437/511/257 413/486/193 412/485/237 
f 438/512/258 437/511/257 415/488/195 
f 415/488/195 437/511/257 412/485/237 
f 438/512/258 415/488/195 414/487/238 
f 439/513/259 438/512/258 417/490/197 
f 417/490/197 438/512/258 414/487/238 
f 439/513/259 417/490/197 416/489/239 
f 440/514/260 439/513/259 419/492/199 
f 419/492/199 439/513/259 416/489/239 
f 440/514/260 419/492/199 418/491/240 
f 421/515/241 440/514/260 420/494/200 
f 420/494/200 440/514/260 418/491/240 
f 421/515/241 420/494/200 383/493/222 
# 920 faces

